<svg xmlns="http://www.w3.org/2000/svg" width="1024" height="1024"><path d="M490.5 10.586c-65.486 3.942-116.493 15.266-171.143 37.997-46.785 19.459-90.081 45.904-131.857 80.538-12.893 10.689-47.69 45.486-58.379 58.379C66.805 262.666 28.637 347.224 15.599 439c-3.999 28.142-4.993 42.728-4.979 73 .017 37.018 2.452 63.196 8.976 96.5C49.365 760.462 148.694 890.879 287.5 960.251c60.409 30.191 120.769 46.706 189.5 51.849 19.698 1.474 69.641.607 88-1.526 102.381-11.9 190.107-49.254 269-114.543 16.063-13.293 48.738-45.968 62.031-62.031 64.281-77.675 101.982-165.246 114.12-265.075 1.935-15.909 2.248-23.477 2.295-55.425.057-39.075-.598-49.257-5.054-78.5C985.773 293.094 902.63 166.073 780.5 88.368c-66.839-42.526-141.843-68.264-221.071-75.861-15.537-1.489-56.929-2.643-68.929-1.921m-8 8.12c-13.133.719-36.58 3.498-53.337 6.323C260.453 53.467 116.799 169.739 52.99 329.5 22.151 406.711 11.473 491.511 22.077 575c9.25 72.833 36.535 146.151 77.408 208 50.403 76.271 123.741 139.428 205.612 177.067 127.307 58.528 271.954 60.629 400.178 5.812C794.309 927.817 871.013 863.498 924.563 782c75.189-114.432 99.341-253.807 66.975-386.5-28.614-117.311-98.155-218.604-198.639-289.335-62.408-43.93-141.952-74.568-218.399-84.123-29.252-3.655-63.473-4.896-92-3.336m7.463 40.379C440.679 61.222 389.834 72.253 342.5 91.076c-13.259 5.273-44.207 20.441-58 28.428C172.868 184.138 92.723 295.692 67.532 421.5c-22.37 111.725-2.35 227.792 55.869 323.908 62.931 103.893 163.241 177.884 280.091 206.599 37.988 9.336 64.973 12.421 108.508 12.406 44.003-.016 70.828-3.194 110.356-13.074 172.903-43.215 306.143-186.7 336.098-361.941 8.609-50.363 8.603-104.801-.018-155.288-20.136-117.921-88.914-225.751-187.802-294.433-82.483-57.288-178.998-85.002-280.671-80.592M482 82.1c-56.04 3.971-109.684 18.596-160.519 43.761-43.991 21.777-77.409 45.931-113.549 82.071s-60.294 69.558-82.071 113.549C67 440.384 66.125 577.037 123.454 697.5c27.041 56.82 69.143 109.813 118.941 149.708 25.299 20.268 47.807 34.702 76.605 49.127 45.752 22.917 87.455 35.689 140 42.877 14.57 1.993 20.71 2.258 52.5 2.267 38.548.011 48.416-.766 77.5-6.103 77.295-14.186 151.475-50.547 208.903-102.397 79.055-71.378 126.903-162.009 141.204-267.461 2.631-19.406 3.7-66.991 1.971-87.757-4.725-56.74-19.076-107.689-44.718-158.761-26.299-52.38-60.714-96.264-105.805-134.919C705.77 111.398 593.271 74.216 482 82.1m13.749 52.313c-7.95 2.139-11.749 7.262-11.749 15.843 0 7.501 3.402 12.501 12.5 18.371 12.169 7.852 13.668 9.331 13.789 13.602.125 4.408-2.117 7.229-7.035 8.852-4.085 1.348-10.998.62-15.318-1.614l-3.03-1.567.297 6.74.297 6.74 3.5.912c1.925.502 7.356.732 12.07.511 14.97-.702 21.93-6.953 21.93-19.698 0-3.286-.478-7.242-1.061-8.79-1.574-4.173-6.611-8.99-14.037-13.423-10.915-6.517-13.433-10.452-9.32-14.565 2.246-2.246 3.206-2.509 7.763-2.131 2.86.237 6.653 1.155 8.428 2.041l3.227 1.61v-3.859c0-6.85-1.285-8.669-6.988-9.892-6.358-1.364-9.238-1.304-15.263.317m-38.249 3.168c-23.777 3.973-21.724 3.391-21.076 5.971.323 1.289 2.868 16.425 5.654 33.635 2.786 17.209 5.146 31.352 5.244 31.428.098.076 7.603-1.088 16.678-2.587l16.5-2.726-.269-4.401c-.425-6.938-.008-6.763-11.338-4.74-5.662 1.011-10.603 1.5-10.98 1.088-.807-.882-2.913-12.78-2.913-16.459 0-2.41.422-2.611 7.952-3.783l7.952-1.237-.518-3.135c-1.336-8.088-.428-7.492-8.985-5.898-4.202.783-7.985 1.05-8.407.593-.774-.838-3.001-14.55-2.462-15.158.16-.18 4.834-1.057 10.387-1.949l10.097-1.622-.595-3.55c-1.346-8.024-.296-7.58-12.921-5.47m115.5 4.013c-4.463 1.934-8.692 5.945-10.97 10.406-2.659 5.206-7.03 27.001-7.03 35.049 0 8.017 2.056 13.137 6.917 17.227 8.033 6.76 20.948 7.665 29.123 2.04 6.591-4.534 9.406-10.468 12.52-26.391 3.344-17.096 3.085-24.098-1.112-30.154-5.862-8.457-19.84-12.338-29.448-8.177m8.5 9.215c-6.139 1.184-9.876 9.261-13.099 28.307-1.727 10.211-1.723 10.552.165 14.421 3.687 7.555 14.108 7.861 17.902.526 2.982-5.767 7.082-26.79 6.677-34.236-.295-5.426-6.272-10.055-11.645-9.018m-192 3.088c-6.044 1.856-8.956 3.229-8.867 4.183.122 1.309 19.439 63.01 19.958 63.747.126.18 2.915-.427 6.197-1.348l5.967-1.674-2.07-6.367-2.07-6.367 6.064-6.315c7.38-7.686 11.372-15.208 12.044-22.693.979-10.903-3.044-18.952-11.653-23.313-7.042-3.568-13.591-3.53-25.57.147m238.5-.582c0 .723-5.149 15.224-11.442 32.225-6.293 17-11.356 30.952-11.25 31.005.106.054 2.809 1.037 6.008 2.185 4.076 1.464 5.923 1.741 6.172.929.767-2.503 9.777-27.178 10.03-27.469.148-.171 3.781 1.053 8.073 2.719 4.292 1.667 7.892 2.931 8.001 2.811.694-.77 3.408-8.211 3.408-9.342 0-.758-.553-1.378-1.229-1.378s-4.228-1.146-7.895-2.547l-6.665-2.547 2.644-7.448c1.455-4.097 3.095-7.422 3.645-7.389.55.032 4.825 1.549 9.5 3.37l8.5 3.312 1.893-4.899c1.041-2.695 1.647-5.146 1.346-5.447-.531-.531-29.421-11.405-30.301-11.405-.241 0-.438.592-.438 1.315m-230.25 9.374c-.962.252-1.767.987-1.787 1.634-.068 2.18 8.482 28.677 9.254 28.677 1.536 0 7.695-9.623 8.892-13.893 2.967-10.587-5.635-19.22-16.359-16.418m-42.598 4.916c-3.214 1.468-5.152 2.931-4.856 3.668.27.675 6.389 14.193 13.598 30.041 7.208 15.848 13.106 29.235 13.106 29.75 0 1.603 2.868 1.037 8.054-1.591 4.105-2.081 4.827-2.832 4.08-4.25-1.378-2.616-25.173-55.196-26.193-57.879-1.07-2.813-1.053-2.814-7.789.261M326.5 181.377c-9.415 4.44-12.844 10.641-12.789 23.123.04 8.998 1.483 13.766 6.828 22.564 10.712 17.634 24.936 23.804 38.138 16.544 2.848-1.566 6.387-4.11 7.866-5.653l2.689-2.806-3.173-5.545-3.172-5.545-3.092 3.522c-8.6 9.794-17.189 7.998-26.72-5.59-5.493-7.83-7.433-13.666-6.855-20.626.568-6.859 3.278-9.869 10.411-11.563l5.099-1.211-2.951-4.796c-3.439-5.588-4.932-5.882-12.279-2.418m362.961 9.869c-3.204 5.64-10.918 18.99-17.143 29.668C666.093 231.592 661 240.436 661 240.569c0 .447 11.2 6.565 11.438 6.247.13-.174 6.455-11.116 14.057-24.316 7.601-13.2 15.312-26.351 17.134-29.225l3.314-5.224-4.722-2.698c-2.596-1.483-5.219-3.072-5.828-3.529-.73-.549-3.087 2.655-6.932 9.422m20.515 25.056c-7.412 10.007-16.705 22.329-20.652 27.382l-7.175 9.188 5.178 3.909 5.178 3.91 3.858-5.442 3.859-5.443 4.639.679c2.552.374 4.992 1.018 5.424 1.433.433.414-.589 4.482-2.27 9.041-2.059 5.585-2.738 8.67-2.08 9.462 2.177 2.623 10.064 7.644 10.039 6.391-.052-2.604 7.474-25.043 8.487-25.307 7.923-2.056 10.539-3.445 15.199-8.072 11.383-11.301 9.393-26.304-4.893-36.88a1856.866 1856.866 0 01-8.291-6.172l-3.024-2.274-13.476 18.195M279 213.684c-5.775 4.707-11.514 9.357-12.753 10.334l-2.254 1.775 21.086 26.354c11.598 14.494 21.512 26.353 22.032 26.353.52 0 6.804-4.666 13.965-10.369 14.5-11.549 13.689-9.757 7.6-16.802l-1.876-2.171-8.488 6.939-8.489 6.939-5.912-7.406c-3.251-4.073-5.911-7.627-5.911-7.898 0-.271 2.877-2.713 6.393-5.428l6.393-4.935-3.486-4.197-3.486-4.196-6.47 5.148c-3.559 2.832-6.808 4.75-7.221 4.263-6.482-7.661-9.244-11.647-8.515-12.288.491-.432 4.151-3.379 8.135-6.549 4.327-3.443 6.969-6.224 6.562-6.907-1.356-2.278-5.817-7.641-6.305-7.58-.275.035-5.225 3.914-11 8.621m439.179 12.376c-4.558 6.083-8.513 11.646-8.787 12.361-.718 1.871 5.948 2.735 11.499 1.491 13.039-2.922 18.027-13.84 9.994-21.873-1.671-1.671-3.349-3.039-3.728-3.039s-4.419 4.977-8.978 11.06m-229.679 9c-61.6 5.749-118.92 32.707-163.594 76.94-23.318 23.087-38.602 44.279-53.008 73.5-27.52 55.818-33.94 115.26-18.819 174.241 3.996 15.588 8.796 28.225 17.382 45.759 19.367 39.551 48.656 73.043 86.039 98.385 9.462 6.414 15.865 10.306 10.548 6.411-44.502-32.597-78.113-81.196-92.527-133.788-5.786-21.113-7.698-34.594-8.26-58.238-.758-31.838 2.201-53.819 10.909-81.058 12.854-40.208 32.889-72.478 63.467-102.226 37.982-36.953 84.313-59.794 137.305-67.693 16.293-2.428 52.31-2.412 67.918.03 50.877 7.963 93.413 29.169 128.725 64.177 12.909 12.798 21.168 22.718 30.359 36.465 38.998 58.331 51.959 132.897 35.947 206.804-9.299 42.922-30.196 83.75-55.76 108.948-28.549 28.137-68.128 50.297-102.483 57.378-15.021 3.097-29.791 2.433-38.685-1.738-12.27-5.753-20.024-16.492-24.624-34.103-2.383-9.125-2.601-11.979-3.376-44.254-.455-18.975-.826-39.675-.824-46l.004-11.5 2.524 11c8.967 39.079 24.579 66.096 43.607 75.463 9.092 4.476 17.471 5.726 28.805 4.295 27.041-3.413 40.978-21.94 39.689-52.762l-.418-10.004 11.575-.085c33.016-.241 51.461-15.115 55.141-44.463 2.415-19.256-4.548-35.779-20.451-48.532-12.143-9.737-34.559-19.485-55.365-24.074-4.538-1.001-8.25-2.074-8.25-2.384 0-.31 3.441-1.142 7.647-1.849 13.749-2.31 28.614-7.054 40.916-13.058 27.128-13.239 38.689-31.875 35.574-57.344-2.282-18.655-10.17-30.699-24.717-37.742-6.945-3.362-14.073-4.958-25.17-5.636l-10.25-.626-.017-11.6c-.029-19.323-4.109-31.974-13.574-42.093-8.711-9.313-20.452-13.522-37.409-13.413-8.426.054-11.651.516-16.324 2.337-7.748 3.019-16.911 10.101-23.379 18.07-13.812 17.018-26.785 52.659-31.4 86.263-.662 4.82-1.414 8.554-1.67 8.297-.257-.257-1.321-6.329-2.365-13.495-3.782-25.953-11.583-51.367-21.2-69.065-3.789-6.972-7.29-11.654-13.162-17.595-12.037-12.181-22.69-16.304-38.731-14.993-16.159 1.32-27.694 7.231-34.758 17.809-5.987 8.966-7.274 14.072-7.762 30.783l-.423 14.503-11.663.1c-30.015.255-48.448 13.374-53.716 38.23-7.34 34.631 12.619 59.758 59.117 74.423 6.015 1.897 13.974 4.047 17.686 4.778 3.712.731 6.747 1.584 6.743 1.895-.004.312-5.282 1.595-11.728 2.852-30.386 5.924-54.098 18.163-64.528 33.306-5.468 7.94-7.891 15.066-8.48 24.945-2.036 34.105 18.175 54.74 53.801 54.929l6.558.035-.411 8.75c-.765 16.253 3.855 33.225 11.761 43.207 6.694 8.452 19.219 14.342 33.188 15.608 20.656 1.872 37.786-7.306 50.885-27.262l4.724-7.197.54 22.197c.57 23.423 1.503 29.822 6.152 42.173 8.892 23.625 26.608 38.286 52.045 43.07 13.618 2.561 32.363 1.603 47.798-2.443 52.226-13.691 105.984-53.883 139.185-104.062 32.453-49.05 47.158-105.198 44.531-170.041-.953-23.532-2.652-36.124-7.438-55.126C746.32 339.565 665.628 261.78 567.5 240.115c-22.303-4.925-56.771-7.13-79-5.055m255.923 23.043c-12.608 13.256-23.04 24.408-23.183 24.781-.144.374 1.774 2.676 4.261 5.117l4.522 4.438 2.827-2.97c1.555-1.633 12.197-12.778 23.65-24.767l20.823-21.797-4.37-4.453c-2.403-2.448-4.648-4.452-4.988-4.452-.34 0-10.934 10.846-23.542 24.103m-498.659-10.107c-4.823 1.452-9.387 4.862-16.257 12.144-6.466 6.854-6.639 7.169-4.856 8.838 1.017.952 12.377 11.562 25.246 23.579l23.396 21.849 4.17-4.807 4.17-4.807-4.848-4.646-4.848-4.646 1.563-5.227 1.564-5.227 8.458 4.195 8.458 4.195 4.489-4.406c2.469-2.423 4.236-4.658 3.927-4.968-.31-.309-5.813-2.888-12.229-5.73l-11.667-5.168-.718-4.2c-2.65-15.5-16.364-25.08-30.018-20.968m-.264 12.789c-6.526 4.113-6.525 4.118 4.977 14.861 5.802 5.42 10.951 9.99 11.442 10.156 1.335.452 3.138-9.245 2.42-13.017-2.048-10.767-11.371-16.705-18.839-12m535 .788c-4.041 2.101-7.368 5.307-9.236 8.9-1.275 2.453-1.414 4.99-.794 14.5.414 6.34.747 12.58.741 13.868-.015 3.214-4.957 8.16-8.148 8.155-5.743-.008-11.721-5.99-14.237-14.246-.628-2.062-1.409-3.731-1.734-3.707-.326.023-2.593 1.799-5.038 3.946l-4.446 3.903 2.446 5.225C744.641 311.914 755.242 320 763.5 320c5.013 0 11.627-3.242 15.414-7.555 4.731-5.388 5.564-10.053 4.15-23.258-1.059-9.895-1.017-11.609.336-13.674 2.045-3.122 5.079-3.991 7.648-2.192 3.027 2.12 6.754 7.499 7.477 10.791.928 4.225 2.049 4.358 6.346.751l3.875-3.253-1.465-4.299c-1.771-5.196-8.969-13.46-13.665-15.689-4.305-2.043-9.247-2.061-13.116-.049m14.771 55.099l-29.23 17.588 2.515 4.12c1.382 2.266 2.862 4.697 3.287 5.403.569.944 4.236-.824 13.914-6.71l13.142-7.993 4.55 7.495c2.503 4.123 4.551 7.878 4.551 8.345 0 .468-5.824 4.313-12.941 8.545l-12.942 7.695 3.117 5.17c1.715 2.844 3.193 5.287 3.286 5.431.092.143 6.054-3.319 13.248-7.695 10.755-6.541 13.283-7.71 14.224-6.576 1.631 1.966 10.245-3.169 9.46-5.64-.405-1.278 2.097-3.258 10.575-8.367 7.173-4.321 10.928-7.159 10.601-8.011-.279-.726-1.686-3.188-3.128-5.471-2.457-3.893-2.757-4.065-4.81-2.757-9.938 6.332-19.83 11.787-20.559 11.337-.904-.559-9.131-14.021-9.131-14.942 0-.281 4.95-3.494 11-7.139s11-6.817 11-7.049c0-.479-6.084-10.474-6.336-10.409-.09.023-13.317 7.957-29.393 17.63m-612.215 8.391c-1.744 2.835-3.022 5.304-2.84 5.486.182.183 12.246 7.47 26.808 16.194 14.562 8.725 27.617 16.615 29.012 17.534l2.535 1.672 8.465-14.14c4.655-7.777 8.587-14.628 8.736-15.224.15-.597-1.752-2.305-4.227-3.797l-4.499-2.711-5.646 9.461c-3.106 5.204-5.859 9.462-6.118 9.462-.26 0-11.109-6.413-24.11-14.25s-23.932-14.383-24.292-14.545c-.359-.163-2.08 2.024-3.824 4.858m-21.628 44.943c-1.512 3.854-2.564 7.163-2.338 7.355 4.326 3.671 56.073 41.809 56.351 41.531.215-.216 1.293-2.679 2.395-5.475l2.003-5.083-5.919-4.31c-3.256-2.371-5.922-4.809-5.925-5.418-.003-.608 1.383-4.559 3.081-8.78l3.087-7.674 3.669.536c2.017.295 5.456.91 7.641 1.368 2.185.457 4.022.744 4.082.638.06-.107 1.154-2.824 2.432-6.039 2.545-6.405 2.079-7.597-2.987-7.651-5.32-.056-9.844-1.247-9.375-2.468.282-.736-1.341-1.92-4.053-2.956-4.68-1.787-6.572-1.505-6.572.979 0 1.965-2.287 1.866-24.401-1.059-10.395-1.375-19.243-2.5-19.662-2.5-.418 0-1.997 3.153-3.509 7.006m20.122 8.921c.522.51 4.54 3.694 8.929 7.075l7.978 6.147 1.724-4.06c3.167-7.456 3.207-7.393-5.681-8.733-10.05-1.515-14.204-1.652-12.95-.429m655.829 7.423c-7.13 1.818-19.288 7.754-23.555 11.499-5.131 4.506-8.204 12.18-7.522 18.786.53 5.135 3.151 12.149 5.85 15.654 1.438 1.866 1.658 1.832 11.685-1.808.986-.357.664-1.286-1.224-3.529-1.408-1.673-3.047-4.849-3.641-7.056-.9-3.343-.779-4.63.724-7.705 3.716-7.603 20.114-15.006 30.796-13.904 9.922 1.024 14.508 5.678 14.508 14.721 0 3.188.338 4.076 1.396 3.67.768-.294 3.294-1.104 5.615-1.799l4.219-1.265-.65-5.557c-1.256-10.729-6.188-17.222-15.649-20.6-6.08-2.171-16.395-2.677-22.552-1.107m-692.223 31.23c-.636 3.164-1.03 5.879-.876 6.033.154.155 6.984 1.66 15.178 3.345 8.193 1.685 15.105 3.271 15.358 3.525.542.542.173.687-19.316 7.565-8.25 2.911-15.298 5.741-15.661 6.288-.364.547-.963 3.003-1.331 5.457-.368 2.455-.903 5.073-1.189 5.818-.419 1.093.065 1.151 2.505.3 2.521-.878 8.095.041 33.457 5.517 16.738 3.615 30.684 6.572 30.993 6.572.511 0 2.726-8.914 2.726-10.97 0-.479-1.238-1.115-2.75-1.413-10.652-2.097-37.024-7.767-38.25-8.223-.825-.307 5.904-3.21 14.954-6.451l16.454-5.892 6.47 1.5c3.558.826 6.78 1.152 7.159.725.379-.427 1.122-3.066 1.65-5.865l.961-5.088-31.574-6.798c-17.366-3.74-32.517-7.001-33.669-7.249-1.842-.396-2.233.242-3.249 5.304m711.097 16.516c-25.371 4.221-31.135 6.189-35.553 12.139-8.902 11.99-4.535 29.803 8.8 35.894 5.611 2.563 12.353 2.342 34.5-1.129 10.527-1.65 20.507-3 22.178-3 2.644 0 2.969-.293 2.502-2.25-.295-1.238-.849-4.414-1.231-7.06-.557-3.858-1.012-4.688-2.3-4.194-.883.339-11.74 2.196-24.127 4.127-24.837 3.871-28.015 3.743-31.968-1.282-2.753-3.499-2.712-9.258.088-12.263 3.505-3.762 7.853-4.97 31.098-8.638 12.182-1.922 22.334-3.68 22.56-3.906.939-.94-1.064-12.527-2.148-12.42-.634.063-11.613 1.854-24.399 3.982m-720.664 42.207c-.324 1.621-.589 4.578-.588 6.572v3.625l33.641 2.776c18.502 1.527 33.742 2.652 33.866 2.5.125-.152.525-3.006.888-6.342l.662-6.065-28.279-2.275c-15.554-1.251-30.826-2.604-33.94-3.006l-5.66-.733-.59 2.948M870.5 496.125c-9.9.344-25.087.682-33.75.75L821 497l-.002 6.75-.001 6.75 14.751-.634c8.114-.348 23.675-.686 34.582-.75l19.829-.116-.703-6.75c-.386-3.712-.759-6.75-.829-6.75-.07 0-8.227.281-18.127.625m-688.25 7.621l-10.25.324V516h7.444c6.428 0 7.828.33 10.25 2.413 2.334 2.008 2.806 3.204 2.806 7.11 0 4.112-.42 5.047-3.38 7.518-4.526 3.779-11.656 5.46-23.12 5.453-8.26-.005-10.087-.332-14-2.505-7.726-4.292-9.913-12.443-5.637-21.014.9-1.805 1.637-3.438 1.637-3.629 0-.19-2.463-.346-5.474-.346-5.027 0-5.597.237-6.972 2.895-5.653 10.932-.64 27.492 10.085 33.317 11.262 6.118 32.672 5.899 45.322-.463 9.047-4.549 12.349-9.884 12.395-20.027.033-7.311-1.365-11.588-4.963-15.186-1.539-1.539-1.47-1.846.977-4.4 1.446-1.51 2.63-3.058 2.63-3.441 0-.382-2.137-.6-4.75-.484-2.613.116-9.363.357-15 .535m639.27 20.194c-2.247 6.765-1.773 19.894.917 25.399 2.72 5.568 8.132 8.781 15.783 9.37 8.998.694 14.521-2.505 23.493-13.607 7.334-9.074 9.662-10.594 13.392-8.742 3.521 1.747 3.83 9.462.631 15.775l-2.348 4.635 5.477.644c3.013.354 5.806.293 6.208-.135 1.75-1.864 3.925-10.813 3.905-16.064-.048-12.389-6.833-18.972-18.553-18-6.644.551-10.477 3.358-18.628 13.641-6.986 8.815-7.344 9.108-11.113 9.129-4.101.022-6.664-1.693-8.269-5.533-1.969-4.713-1.743-8.039.997-14.702 2.155-5.24 2.21-5.75.616-5.75-.962 0-3.783-.279-6.268-.619l-4.52-.62-1.72 5.179m-618.615 34.489c-.236.236-13.924 2.717-30.417 5.515-16.493 2.797-30.915 5.291-32.048 5.542-1.95.432-2.008.807-1.083 7 .785 5.249 1.291 6.447 2.56 6.062 2.574-.781 59.587-10.547 61.672-10.563 3.982-.032 4.444-1.153 3.212-7.78-.999-5.372-2.329-7.344-3.896-5.776m613.545 8.039c-1.024 3.304-2.227 11.084-1.816 11.749.266.431 1.355.783 2.42.783 1.064 0 15.592 2.7 32.282 6 16.691 3.3 30.817 6 31.392 6 .575 0 1.347-2.138 1.715-4.75.369-2.612.901-5.538 1.181-6.5.38-1.301-.083-1.764-1.807-1.805-1.274-.031-16.431-2.858-33.682-6.282-19.374-3.846-31.487-5.832-31.685-5.195m-618.781 20.565l-10.83 7.798-3.67-1.549c-4.895-2.067-15.604-1.998-20.655.132-12.467 5.258-15.931 17.501-10.164 35.921 1.759 5.62 3.2 8.668 3.958 8.378 1.649-.633 57.456-17.36 61.332-18.383l3.141-.83-1.905-6.179-1.905-6.18-6.07 2.05-6.07 2.05-3.916-3.824c-2.153-2.102-3.908-4.069-3.9-4.37.008-.301 3.547-2.75 7.864-5.442l7.85-4.895-1.805-5.962c-.993-3.28-1.945-6.087-2.115-6.238-.17-.151-5.183 3.235-11.14 7.523m612.56 7.754l-1.997 5.914 20.634 6.792c15.769 5.191 20.162 6.989 18.634 7.625-1.1.458-8.646 2.408-16.768 4.334l-14.768 3.502-6.695-2.43c-3.683-1.337-6.764-2.339-6.848-2.227-.793 1.062-3.502 10.956-3.107 11.35.285.285 14.948 5.33 32.585 11.212l32.068 10.694 1.968-5.826c1.442-4.27 1.647-5.926.766-6.198-.66-.204-7.726-2.511-15.701-5.127l-14.5-4.757 9-2.231c4.95-1.227 13.368-3.223 18.707-4.436l9.708-2.205 1.688-5.136c.929-2.826 1.888-5.678 2.131-6.338.311-.843-.554-1.05-2.896-.693-2.495.381-10.411-1.881-31.338-8.952-15.4-5.203-28.737-9.758-29.637-10.121-1.3-.524-2.047.555-3.634 5.254m-640.02 9.281c-6.825 1.444-11.017 8.217-9.219 14.894.977 3.63 1.228 3.835 3.778 3.09 18.506-5.408 24.872-7.421 25.611-8.101 1.035-.953-3.597-5.487-7.879-7.71-4.295-2.231-8.504-2.975-12.291-2.173M206 635.683c-6.087 2.133-26.59 12.896-29.601 15.54-4.872 4.278-7.352 9.925-7.367 16.777-.024 10.481 7.09 20.61 16.197 23.062 7.865 2.117 13.625.834 28.018-6.242 7.289-3.584 14.735-7.766 16.547-9.294 9.439-7.96 10.411-22.827 2.144-32.805-4.659-5.623-9.54-7.736-17.648-7.642-3.735.043-7.465.315-8.29.604m586.671 6.697c-.803 1.225-4.391 8.076-7.972 15.224l-6.512 12.995 4.914 2.762c4.56 2.564 4.962 2.632 5.575.951.364-.997 2.659-5.539 5.1-10.093l4.439-8.282 7.643 4.15c4.203 2.283 8.038 4.515 8.522 4.962.493.454-.718 3.72-2.75 7.416-1.996 3.632-3.63 6.805-3.63 7.05 0 .246 2.104 1.516 4.675 2.823l4.675 2.375 3.403-7.101c1.872-3.906 3.547-7.246 3.723-7.421.483-.483 14.524 6.739 14.524 7.47 0 .35-2.025 4.351-4.5 8.891-2.475 4.541-4.5 8.659-4.5 9.153 0 .856 9.01 5.706 9.457 5.091.118-.163 3.633-6.846 7.81-14.851l7.594-14.554-11.18-5.651c-6.15-3.108-19.814-10.137-30.366-15.62l-19.184-9.968-1.46 2.228M210.5 647.864c-9.246 3.396-23.377 11.08-26.953 14.656-4.586 4.586-4.817 9.027-.709 13.625 4.456 4.987 9.552 4.436 23.93-2.585 14.195-6.931 17.08-8.952 18.859-13.209 1.191-2.852 1.195-3.835.024-6.601-2.891-6.831-7.598-8.66-15.151-5.886m34.181 104.818l-17.818 17.635 2.564 2.565 2.564 2.564 5.808-5.747 5.807-5.747 2.315 2.463 2.314 2.464-1.802 9.564-1.801 9.563 2.913 3.041 2.913 3.041 1.231-6.794c.676-3.737 1.487-8.221 1.801-9.964l.571-3.17 6.719.17c7.61.193 12.435-2.007 15.378-7.011 4.95-8.414 3.167-16.105-5.912-25.509-3.616-3.746-6.838-6.8-7.16-6.787-.322.013-8.604 7.959-18.405 17.659m512.289-15.15l-2.378 2.531 12.954 13.068c7.125 7.188 12.054 12.816 10.954 12.507-5.431-1.524-37.909-8.638-39.437-8.638-.964 0-2.587.922-3.607 2.048-1.834 2.027-1.667 2.234 16.308 20.209l18.161 18.162 2.57-2.414 2.569-2.413-12.733-12.762c-7.003-7.018-12.527-12.967-12.275-13.219.252-.252 9.176 1.533 19.831 3.966 10.655 2.432 20.145 4.423 21.088 4.423.943 0 2.548-.92 3.565-2.044 1.83-2.023 1.655-2.24-16.084-20C768.591 743.08 760.257 735 759.935 735c-.323 0-1.657 1.139-2.965 2.532m-501.325 14.322l-7.777 7.823 3.677 3.228c7.034 6.176 12.073 6.677 17.055 1.695 5.208-5.208 4.401-11.468-2.299-17.835l-2.878-2.734-7.778 7.823m469.157 16.401l-2.698 2.245 15.887 18.98c8.737 10.438 16.296 19.116 16.796 19.282.501.167 1.987-.568 3.303-1.634 2.216-1.794 2.275-2.073.799-3.783-.877-1.015-8.209-9.832-16.294-19.595-8.085-9.763-14.789-17.748-14.898-17.745-.108.003-1.411 1.015-2.895 2.25M275 778.975c-4.942.901-8.259 3.363-10.925 8.105-1.873 3.333-2.224 5.183-1.882 9.918.566 7.817 3.962 12.904 10.936 16.379 4.992 2.487 13.555 3.606 15.178 1.983.352-.352-.12-1.927-1.049-3.5-1.324-2.241-2.414-2.86-5.039-2.86-3.733 0-6.612-1.242-9.969-4.299-3.834-3.492-2.909-4.701 3.596-4.701 3.216 0 9.966-.292 15-.65 10.264-.728 10.562-1.046 7.606-8.118-3.755-8.989-13.487-14.075-23.452-12.257m.096 7.29c-2.716 1.396-6.763 6.401-5.885 7.279.317.317 5.537.263 11.599-.121 12.374-.783 13.16-1.598 5.735-5.95-4.669-2.736-7.828-3.069-11.449-1.208m423.569 1.581c-1.466.89-2.665 1.947-2.665 2.349 0 .403 6.573 9.928 14.607 21.168l14.607 20.435 10.847-7.649c5.965-4.207 10.867-8.142 10.892-8.744.026-.602-.813-1.874-1.865-2.825-1.832-1.659-2.195-1.527-8.75 3.184-3.761 2.704-7.369 5.219-8.017 5.591-.742.425-4.439-3.875-9.963-11.59-4.831-6.746-10.639-14.801-12.906-17.901l-4.122-5.635-2.665 1.617m-27.398 16.771c-6.175 3.513-6.221 3.572-4.853 6.215 2.641 5.107 22.755 39.674 23.587 40.537.828.86 10.725-4.155 14.355-7.274 5.759-4.948 7.533-17.024 3.394-23.105-3.379-4.964-7.046-7.216-12.626-7.752-4.907-.472-5.012-.55-4.458-3.32.452-2.258-.054-3.459-2.472-5.878-4.215-4.215-8.781-4.059-16.927.577M308 806c-2.707 2.707-2.553 7.608.443 14.074 1.807 3.9 2.188 5.747 1.464 7.099-1.824 3.409-7.907 1.707-7.907-2.212 0-1.5-3.758-3.961-6.047-3.961-1.786 0-.975 6.702 1.135 9.385 4.798 6.1 12.588 7.03 17.524 2.094 3.145-3.145 3.123-8.432-.064-14.979-2.158-4.433-2.265-5.17-.943-6.5 1.324-1.333 1.68-1.256 3.193.689.936 1.205 2.94 2.491 4.452 2.859 2.519.613 2.747.429 2.718-2.19-.017-1.572-.58-3.572-1.25-4.445-3.266-4.253-11.329-5.302-14.718-1.913m369.743 2.627c-3.208 1.681-3.191 1.605-1.217 5.423 1.842 3.562 2.567 3.634 6.086.608 4.553-3.917.553-8.872-4.869-6.031m-336.144 4.368l-2.718 4.995-2.91-1.505c-2.824-1.46-2.953-1.42-4.394 1.366-1.415 2.737-1.37 2.922.969 3.988 1.35.615 2.454 1.629 2.454 2.253 0 .624-2.182 5.021-4.85 9.771-8.023 14.289-7.632 12.836-3.961 14.735 1.773.916 3.364 1.269 3.536.784.172-.485 3.03-5.727 6.351-11.649 5.888-10.497 6.093-10.728 8.204-9.25 2.963 2.076 3.446 1.948 5.164-1.374 1.457-2.818 1.42-2.923-1.438-4.106l-2.932-1.215 2.707-5.144a625.314 625.314 0 002.989-5.722c.288-.591-4.225-2.922-5.658-2.922-.437 0-2.017 2.248-3.513 4.995m313.546.075c-1.295.519-2.135 1.502-1.868 2.186.267.684 3.502 8.399 7.188 17.144 7.662 18.178 7.832 20.376 1.969 25.524-2.789 2.449-4.411 3.076-7.953 3.076-6.915 0-9.298-2.949-16.56-20.5-3.414-8.25-6.587-15.422-7.051-15.937-.519-.576-1.96-.383-3.732.5l-2.886 1.437 7.183 16.956c3.951 9.325 8.334 18.124 9.742 19.552 2.736 2.776 8.73 4.998 13.439 4.982 5.054-.017 12.999-4.451 15.94-8.896 4.912-7.422 4.544-10.418-3.669-29.844-4.011-9.487-7.764-17.221-8.34-17.187-.576.035-2.107.488-3.402 1.007m31.105 7.903c-2.337 1.061-4.25 2.141-4.25 2.399 0 .69 10.01 17.974 11.006 19.005 1.235 1.277 7.444-2.875 8.822-5.899 3.197-7.017.16-14.554-6.623-16.438-4.611-1.28-3.92-1.353-8.955.933m-326.566 11.476c-4.983 1.777-7.552 4.149-9.803 9.051-2.32 5.052-2.325 8.927-.016 14.009 3.626 7.98 12.923 13.372 20.582 11.935 3.018-.566 3.359-.418 2.918 1.267-.357 1.367.271 2.258 2.22 3.146 1.496.681 3.055.88 3.465.441.765-.818 11.519-25.754 12.118-28.098.182-.715-1.13-1.931-2.918-2.702-1.801-.776-3.25-.969-3.25-.432 0 .533-1.913-1.017-4.25-3.444-6.041-6.273-13.113-8.01-21.066-5.173m234.816 2.524c-9.113 1.982-8.981-.463-1.424 26.338 3.692 13.097 6.961 24.059 7.263 24.361.993.993 11.704-2.928 16.282-5.96 5.191-3.438 10.016-11.106 10.963-17.422.833-5.558-1.113-13.34-4.506-18.022-5.463-7.535-17.969-11.603-28.578-9.295m-234.196 4.983c-2.144 1.308-3.587 3.255-4.386 5.923-1.039 3.468-.938 4.46.793 7.797 4.965 9.569 18.213 10.179 22.311 1.027 4.815-10.755-8.308-21.094-18.718-14.747m237.446.764c-1.513.227-2.75.59-2.75.807 0 .894 9.976 35.782 10.334 36.14.758.758 5.325-1.509 8.615-4.277 3.866-3.253 7.031-9.576 6.953-13.89-.208-11.517-11.348-20.554-23.152-18.78m-198.237 6.53c-2.093 6.167-5.513 19.695-5.513 21.809 0 3.693 3.884 9.111 8.02 11.189 2.014 1.013 5.733 1.75 8.83 1.75 4.724.002 5.738-.386 8.66-3.308 1.821-1.821 3.794-5.084 4.386-7.25.591-2.167 1.941-6.948 2.999-10.623l1.926-6.684-3.073-1.071c-1.69-.589-3.217-.926-3.394-.75-.176.177-1.648 4.785-3.27 10.241C416 872.925 413.801 876 409.466 876c-2.877 0-8.466-4.573-8.466-6.926 0-.962 1.313-6.122 2.918-11.467l2.918-9.719-2.483-.944c-3.303-1.256-4.332-1.191-4.84.306m147.856 3.5c.278.962.645 3.775.818 6.25.309 4.442.27 4.504-3.017 4.819-2.493.239-3.185.7-2.75 1.832.319.832.58 2.122.58 2.867 0 .798 1.337 1.484 3.25 1.669l3.25.313 1.409 12.75c1.307 11.828 1.561 12.749 3.5 12.735 4.596-.034 4.925-1.034 3.715-11.291-1.738-14.744-1.665-15.336 1.984-16.066 2.306-.461 2.952-1.03 2.5-2.206-.334-.872-.608-2.253-.608-3.068 0-1.07-.904-1.395-3.25-1.168-3.065.296-3.265.115-3.52-3.186-.562-7.289-.99-8-4.816-8-2.905 0-3.457.317-3.045 1.75m-112.987 21.163l-2.997 15.914 2.995.599c1.647.329 3.292.256 3.655-.163.364-.42 1.234-4.138 1.934-8.263 1.91-11.251 3.155-13.012 11.281-15.955 2.011-.728 2.75-1.674 2.75-3.52 0-3.002-2.493-3.356-7.05-.999-2.772 1.433-2.95 1.409-2.95-.393 0-1.965-1.824-3.133-4.892-3.133-1.44 0-2.229 2.655-4.726 15.913m35.503-11.591c-12.144 4.532-16.363 16.313-9.537 26.628 4.683 7.076 17.227 10.39 24.702 6.524 2.798-1.447 2.95-1.421 2.95.5 0 1.649.652 2.026 3.5 2.026 3.268 0 3.504-.215 3.567-3.25.037-1.788.614-8.973 1.284-15.968l1.217-12.718-2.76-.606c-1.517-.333-3.228-.316-3.802.038-.573.355-2.578-.305-4.455-1.465-4.348-2.687-11.955-3.467-16.666-1.709m45.75 3.751c-1.449 1.139-2.635 1.589-2.635 1 0-.59-1.638-1.073-3.639-1.073h-3.64l.631 5.25c.347 2.888.635 10.087.639 16L507 896h7.156l-.29-12.119c-.279-11.645-.2-12.192 2.033-14 2.979-2.412 7.237-2.401 10.24.028 2.206 1.785 2.383 2.702 2.695 14l.333 12.091h7.034l-.41-12.75c-.449-13.993-1.51-17.536-5.936-19.825-4.132-2.137-11.083-1.82-14.22.648m-45.762 3.611c-3.234 2.007-5.873 6.308-5.873 9.572 0 1.347 1.02 3.961 2.266 5.811 6.625 9.83 22.734 6.098 22.734-5.268 0-2.394-.702-5.357-1.561-6.582-3.501-4.999-12.34-6.777-17.566-3.533" fill="undefined" fill-rule="evenodd"/></svg>