<svg xmlns="http://www.w3.org/2000/svg" viewBox="0 0 179.85 259.94"><defs><style>.cls-1{fill:#276a55;fill-rule:evenodd;}</style></defs><title>Ресурс 3</title><g id="Слой_2" data-name="Слой 2"><g id="Layer_1" data-name="Layer 1"><path class="cls-1" d="M108.7,157.62l34.57-88.94s8.77,11.8,1.7,64.55C136.32,197.77,94.38,228,94.38,228L22.57,61c-2.4,3.16-5.83,4.8-9.45,4.26A10.16,10.16,0,0,1,4.85,53.7a9.82,9.82,0,0,1,11-8.71,9.63,9.63,0,0,1,7.68,5.81,17.08,17.08,0,0,1,1.35,3.07c3,7.46,72,165.68,72,165.68a130.31,130.31,0,0,0,14-15.25c-7.19-14.14-64-125.91-65.55-130.08-1.62-4.46-4.49-9.56-3.06-10.29s4,2.95,6.85,8.51l64.83,127.72c6.74-9.57,9-16.09,9-16.09ZM9.51,54.44a5.36,5.36,0,0,1,6-4.75A5.54,5.54,0,0,1,20,56a5.35,5.35,0,0,1-6,4.75A5.54,5.54,0,0,1,9.51,54.44Zm30.78,86.43a4,4,0,0,1,4.49-3.57A4.17,4.17,0,0,1,48.17,142a4,4,0,0,1-4.5,3.57A4.16,4.16,0,0,1,40.29,140.87Zm-4.36-.65a8.47,8.47,0,0,1,9.47-7.5,8.75,8.75,0,0,1,7.12,10,8.45,8.45,0,0,1-9.46,7.51A8.77,8.77,0,0,1,35.93,140.22ZM79.78,44.08,85,46.16l-16.21,41-3.58-6.32Zm10.55,4,5.33,1.7L75.9,99.73,72.31,93.4Zm10.85,3.23,5.5,1.3L83,112.32,79.45,106ZM136.94,53a83.6,83.6,0,0,0,23.12-9.89l3.64,19.26s7.76-1.2,8.21,1.69c1.19,7.66-1.48,11-2.15,19.33s.78,20.7-2.12,35.71-6.85,37.86-15.59,56.68c-2,4.34-3.14,20.12-3.14,20.12s-7-1-10.31,7.35-8.87,16.46-12.28,22-5.18,15.14,2.26,16.25c2.62.39,4.92-.21,4-3.15-1.46-4.59,1.12-5.73,4-3.61,5.67,4.12-.3,15.86-10.79,14.3S113,234.53,113,234.53s37.6-48.21,48.08-109.86c6.75-39.68-4.9-72.78-4.9-72.78s-8.75,5.24-15.65,7L104.39,150l-3.54-6.24Zm-18.68,1.64L90.19,124.92l-3.61-6.36,25.78-64.82,4,.63Zm6.28.27a45.21,45.21,0,0,0,5.73-.59l-32.94,83.2-3.61-6.37,30.34-76.28ZM59.38,34.33l5,2.52L67,38.15l2.53,1.25,5.06,2.4L61.62,74.53,58,68.23,69.51,39.4,67,38.15l-2.57-1.3L54.47,61.94l-3.56-6.29-3.08-5.43L40,35.84c-1.93-3.43-.27-8.77,2.68-8.33,2.65.39,5.05,1.18,11.61,4.32L47.34,49.32l3.57,6.33Zm-43.15-7L30.1,29.35c2.92.43,3.17,6.13-1.92,5.37L17.83,33.18C14.32,32.66,12.14,26.67,16.23,27.28Zm28.31-7.73s5.76-2.92,11.61-2.05c10.54,1.57,32.71,18.7,53.78,21.83,29.84,4.44,51.84-14.1,51.84-14.1s7.21-.38,1.12,5a65.21,65.21,0,0,1-51.95,14.91C84,41.14,60,24.36,55.41,23.05S44.54,19.55,44.54,19.55ZM10.79,23.33S25.51,1.19,56.53,5.8c22.23,3.31,28.59,9.29,49.66,12.42C131.94,22.05,153-1.23,161.56.05c12.29,1.83,8.55,16.36,8.55,16.36s7.25,3.79,6.29,11a13.51,13.51,0,0,1-7.32,10s1,15.12,2.39,17.85c5.21-.37,10.38,4.14,7.6,15-3.71,14.42-1.29,27-4.43,50.39S160.21,174.9,158,178.33s-3,26.6-3,26.6-8.53-3.15-10.53,2.84a78.58,78.58,0,0,1-8.24,17s12.2,2.44,10.22,17.24c-1.74,12.94-16.94,19.48-29.63,17.6-18.72-2.79-27.7-24.88-27.7-24.88L67.57,248.52,9.28,70.26S-1.34,64.91.14,53.81,8,39.89,8,39.89l.57-8.72S6.46,29,6.7,27.12,10.79,23.33,10.79,23.33Z"/></g></g></svg>