<svg xmlns="http://www.w3.org/2000/svg" viewBox="0 0 20.92 16.19"><defs><style>.cls-1{fill:#fff;}</style></defs><title>Ресурс 4</title><g id="Слой_2" data-name="Слой 2"><g id="Layer_1" data-name="Layer 1"><path class="cls-1" d="M18.12,2q1.17,1.69,0,2.79l-.52.5A13.15,13.15,0,0,1,14.1,7.11a.59.59,0,0,0-.27.17l-.08.07a.59.59,0,0,0-.22.64c.28.29,1,.06,2.24-.67,2.32-1,3.78-1.24,4.4-.59l.38.39a2.19,2.19,0,0,1-.48,2.94l0,0-.25.16-.31.29c-.17.17-.15.71.06,1.61A2.39,2.39,0,0,1,19,13.42l-.12.12q-1.26,1.2-2.94-.15a15.51,15.51,0,0,1-2.24-4.14l-.09-.08c-.31-.25-.5-.34-.58-.26l0,0c-.16.15.39,1.17,1.63,3.06.88,1.7.93,2.92.18,3.64s-1.75.72-3,0c-.61-.63-1-.84-1.26-.61A2.07,2.07,0,0,1,8,14.58a2.12,2.12,0,0,1,.24-3l.34-.32a18.19,18.19,0,0,1,3.33-2.13,2.28,2.28,0,0,1,.26-.41L12,8.59a55.58,55.58,0,0,0-5.82,2.8A8.72,8.72,0,0,1,2.48,12a4.16,4.16,0,0,1-2.13-.67A2.79,2.79,0,0,1,0,9.49a.49.49,0,0,1,.09-.18l.12,0,.17.18q3.17,3.29,9.28-.41l2.13-.79-.08-.09c-.14-.15-1.18.18-3.11,1-1.75.52-2.92.47-3.52-.16L5,9c-.6-.62-.61-1.5,0-2.62l.39-.44.81-.62c.13-.12.12-.53,0-1.23a2.09,2.09,0,0,1,.49-1.29L7,2.45a2,2,0,0,1,2.49-.07L10,2.9A13,13,0,0,1,11.78,7l.24.25c.23.23.44.25.64.06s0-1-.72-2.21Q10.32,1.72,11.4.69L11.7.4c.57-.55,1.42-.53,2.54,0l.4.26c.25.31.44.54.59.69s.54.14,1.17-.06A2.16,2.16,0,0,1,18.12,2Z"/></g></g></svg>