<svg xmlns="http://www.w3.org/2000/svg" viewBox="0 0 211.25 72.53"><defs><style>.cls-1,.cls-2{fill:#fff;}.cls-2{fill-rule:evenodd;}</style></defs><title>Ресурс 2</title><g id="Слой_2" data-name="Слой 2"><g id="Layer_1" data-name="Layer 1"><path class="cls-1" d="M92.91,63.54l2.2.49a6.72,6.72,0,0,1-.33,1,9.27,9.27,0,0,1-.45.87l1.06.73c.13.08.29.18.5.29l-1.52,1.75c-.28-.15-.56-.32-.86-.51s-.56-.37-.8-.5a5.46,5.46,0,0,1-1.47.7,8.17,8.17,0,0,1-2.31.31,4.54,4.54,0,0,1-3-.85,2.59,2.59,0,0,1-1-2.05,2.64,2.64,0,0,1,.58-1.63,4.4,4.4,0,0,1,1.91-1.31,4.7,4.7,0,0,1-.76-1.16,2.61,2.61,0,0,1-.21-1,2.23,2.23,0,0,1,.82-1.78,3.77,3.77,0,0,1,2.5-.7,3.91,3.91,0,0,1,2.51.66,2,2,0,0,1,.81,1.6,2.05,2.05,0,0,1-.25,1,2.51,2.51,0,0,1-.59.78,13.87,13.87,0,0,1-1.24.88,16.54,16.54,0,0,0,1.54,1.38,5.49,5.49,0,0,0,.37-.9Zm-3.24-1.78a3,3,0,0,0,.84-.65,1,1,0,0,0,.3-.66.7.7,0,0,0-.25-.55,1,1,0,0,0-.68-.23,1,1,0,0,0-.7.25.78.78,0,0,0-.27.59c0,.29.25.7.76,1.25Zm-1,2.46a2.87,2.87,0,0,0-.77.7,1.09,1.09,0,0,0-.2.62,1.22,1.22,0,0,0,.44.9,1.64,1.64,0,0,0,1.14.39A3.31,3.31,0,0,0,91,66.24a29.17,29.17,0,0,1-2.3-2Z"/><path class="cls-2" d="M75.31,57.55H72.22a1.48,1.48,0,0,0,.32,1.17,3.18,3.18,0,0,1,.23,1.36v3.19a11,11,0,0,1,0,1.45,8.56,8.56,0,0,0,0,1.54,12.56,12.56,0,0,1-.14,1.44c0,.2,0,.55-.08.73s-.28.59-.08.57l.55-.06c.1-.28.61-.4,1-.4.54,0,1.16.4,1.64.4H76c.13,0,.63-.24.91-.29A9.91,9.91,0,0,0,78,68.52a4.41,4.41,0,0,0,.85-.39c.58-.25.32,0,.78-.47.24-.23.52-.2.68-.51a2.29,2.29,0,0,1,.5-.75,8.53,8.53,0,0,0,.55-1.94v-1c0-.42-.18-.59-.27-1s-.14-.69-.38-.86-.32-.45-.68-.57a9.79,9.79,0,0,0-1-.28h-.7c-.18,0-1.11.24-1.41.29-.65.11-1-.06-1.38.31-.66-.44-.41-.8-.35-1.64,0-.64,0-1.52,0-2.14ZM53.69,61.33h0c-.69,0-.55-.45-1.19-.45H50.66c-.18,0-.29.23-.36.35l.56,3.32h0V67.8c0,.41-.1.7-.1,1.24a3.25,3.25,0,0,1-.11,1.24,8.05,8.05,0,0,0-.18,1.16c-.07.49-.15.86.19,1.09l.79,0h1.8c0-.18.1-.14.1-.2,0-.59-.25-1-.25-1.35V69.69a.9.9,0,0,1,.37-.72c.46-.3.4-.1,1-.19a5.55,5.55,0,0,0,1.76-.48,2.66,2.66,0,0,1,.84-.25c.65-.16.36-.25.68-.47a2.51,2.51,0,0,0,1-1.24c.14-.29.33-.37.42-.68s.1-.75.14-1a4.35,4.35,0,0,0-.11-1.93,3.31,3.31,0,0,0-.9-1.34c-.37-.33-.08-.23-.66-.43a6.51,6.51,0,0,0-.92-.23h-.05a10,10,0,0,0-1.5.24c-.27.07-.42.07-.72.13s-.46.23-.67.23ZM11,61.48c-.22-.15-.47-.7-.55-.7s-.47.15-.79.15-.58,0-.95,0A5.84,5.84,0,0,0,7,61.23c.35.09.33.33.54.56s.43.32.56.53A3.59,3.59,0,0,1,8.62,64l0,2.59-.23,1.79c.1.19.26.44.55.44h1.44c.7,0,.4-.76.4-1.29v-.2c0-.12.08-.15.15-.25.24.12.31,0,.62.23a2.21,2.21,0,0,0,.61.23c.58.14.51.33,1.18.57.33.12.28.15.51.34a2.09,2.09,0,0,0,.59.24,6.82,6.82,0,0,0,1.37.38h.75c.43,0,.45-.25.89-.25a.82.82,0,0,0,.8-.39c-.18-.25-.57-.24-.81-.44s0-.12-.32-.28a3.3,3.3,0,0,1-.42-.23c-.13-.09-.18-.19-.31-.28s-.31-.11-.44-.21a1.56,1.56,0,0,1-.49-.8c.17-.26,1.17-.68,1.43-1.07a4,4,0,0,0,.47-.77,7.6,7.6,0,0,0,.24-1V63a3.93,3.93,0,0,0-.16-.93c-.12-.48-.06-.4-.42-.68s0-.24-.64-.45a5,5,0,0,0-.92-.23h-.35A18.16,18.16,0,0,0,13,61a7.59,7.59,0,0,0-1,.17,1.85,1.85,0,0,1-.93.32Zm27.44-3.93H35a4.17,4.17,0,0,0,.6,1.28,5.42,5.42,0,0,1,.19,1.7v3.09c0,.88,0,1.62,0,2.49s-.41,1.53-.41,2.19c0,.19.07.49.25.49h.35c.29,0,.39-.1.6-.1s.31.1.6.1h.45c.17,0,.33-.27.39-.39a3.09,3.09,0,0,1,.1-1.9c.28-.58.09-1.29.54-1.75.21-.22.2-.5.38-.76s.15-.15.25-.3.1-.25.2-.4,1-1,1.32-1a2,2,0,0,1,1.69,1.14l.06.7v.1c0,1.32-2.27,3.61-3.24,4.13.3.56.79.29,1.59.29h2a6.22,6.22,0,0,0,1.87-.11c.3-.1.29-.3.38-.62s.22-.34.37-.65l-.08-.17-1.09.06-.21-.45a2.92,2.92,0,0,0,1.05-2.48v-.45A5.37,5.37,0,0,0,45,62.56a5.61,5.61,0,0,0-.5-.9s-.72-.62-.75-.63-1.05-.25-1.15-.25h-.2a8.38,8.38,0,0,0-2,.35c-.59.28-.36.07-.91.23-.14,0-.88.27-.93.27-.22,0-.45-.31-.45-.55v-.15l.29-3.38Zm22.27,4.77.85.15.19.35c-.14.27-.29.31-.4.5s-.1.44-.23.67c-.38.69-.24.53-.37,1.41a3.49,3.49,0,0,0,.88,2.67c.47.33.28.47,1.1.69.53.15.82.42,1.43.15a20,20,0,0,1,3.07-.56,2.1,2.1,0,0,0,1.05.44h.1c.64,0,2,.15,2-.39a5.18,5.18,0,0,1-.3-1.25v-2a11.12,11.12,0,0,1,.33-2c.1-.6.22-1.47.27-2a.69.69,0,0,0-.45-.3c-.36,0-.69.08-1,.08s-.58-.08-.94-.08c-.18,0-.33.19-.4.3v2.24a8.4,8.4,0,0,1,0,1.13c-.06.28-.24.37-.36.78a3.18,3.18,0,0,1-.85,1.39,2.54,2.54,0,0,1-1.46.83h-.15c-.48,0-.6-.31-1-.48s-.32-.47-.6-.85c-.49-.67,0-1.58.21-2.21.12-.37.34-.42.58-.86a2.07,2.07,0,0,1,.75-.69c.18-.12.21-.25.34-.36s.33-.14.49-.26a2.64,2.64,0,0,1,1-.58l-.24-.33c-1.07,0-2.32,0-3.58,0-1.62,0-2.26-.25-2.39,1.34ZM31,66.16c-.36.67-.78,1.49-1.79,1.49-1.39,0-1.4-.33-1.4-1.49,0-.09-.14-.16-.2-.2-.59,0-2.69-.21-2.69.25v.2a3.17,3.17,0,0,0,.68,1.66c.38.25.2.33.66.48a6.13,6.13,0,0,0,1,.24h1.09c.48,0,.76-.15,1.35-.15s1,0,1.49,0,.6-.38,1-.52a2.08,2.08,0,0,0,.85-.69,2.29,2.29,0,0,0,.52-1,4,4,0,0,0,0-1.38c-.15-.88-.2-.44-.58-1-.18-.27-.74-.35-1.19-.35-1.37,0-3.89.56-3.89-.8a4,4,0,0,1,.61-.73,2.37,2.37,0,0,1,1.14-.26c1,0,1.48,1.14,1.69,1.14h.35c.19,0,.5-.21.6-.22l1.09.17a.82.82,0,0,0,.15-.55v-.1a.89.89,0,0,0-.26-.78c-.22-.22-.23-.44-.51-.53a6.34,6.34,0,0,0-1.62-.48h-.3c-.77,0-.8.35-1.79.35a8.19,8.19,0,0,0-2,.16c-.37.1-.37.22-.68.37s-.35,0-.64.46-.34.12-.44.65a6.69,6.69,0,0,0-.18.89,1.73,1.73,0,0,0,.75,1.38c.76.57.38.47,1.67.47.72,0,1.44,0,2.15,0a3.7,3.7,0,0,1,.94.15c.36.15.26.36.35.75ZM20.37,61.33l-.25.4c.17.25.39.3.51.59A4.06,4.06,0,0,0,21,63a6.58,6.58,0,0,1,.22,2c0,.61-.1,1.22-.1,1.79a5,5,0,0,1-.06.89c0,.28-.24.42-.24.76v.34c0,.12,0,.15.15.15h.35c.36,0,.44-.2.8-.2h.64c.35,0,.46.2.75.2.47,0-.15-3.35-.15-3.78V62.42c0-.23.25-.49.25-.94v-.2c0-.16,0,0-.1-.24L23.06,61a8.07,8.07,0,0,0-1.32.17,2.45,2.45,0,0,1-1.37.18ZM2,61.33a.54.54,0,0,0-.15.35v0c0,.2.28.28.39.41a1.54,1.54,0,0,1,.22.57c.14.54.39.41.39,1.26v2.68c0,.09-.17,1-.2,1.15a2.24,2.24,0,0,0-.14,1.14l.14.1A7,7,0,0,1,4,68.79h.54a2.62,2.62,0,0,1,.71.21l.13-.11.06-.44a18.45,18.45,0,0,0-.3-2.09,7.71,7.71,0,0,0,0-1.18A5.91,5.91,0,0,1,5,64.12a10.05,10.05,0,0,1,.09-1.51c0-.24.26-1.23.26-1.38s0-.06,0-.19L4.83,61c-.72-.11-1.8.35-2.79.35Zm72.77,4.88c0,.08.32.37.38.46.22.34.1.23.49.41s.44.52,1.28.52h.09c.57,0,.85-.81,1.21-1.09a4.11,4.11,0,0,0,.69-1.6v-.84c0-1.16-1-1.55-1.8-1.94a3.3,3.3,0,0,0-.89.69c-.1.17-.27.25-.38.42s-.1.29-.31.49-.26.74-.4,1.19a7.13,7.13,0,0,0-.36,1.29ZM53,65.81v.4a1,1,0,0,0,.63.91c.4.18.57.43,1.11.43h.05a2.14,2.14,0,0,0,1.33-1c.33-.82.56-.6.56-1.82v-.15a2.35,2.35,0,0,0-.58-1.75c-.17-.27-.46-.32-.77-.43-.49-.18-.54-.08-.89.09s-.35.27-.56.64-.34.31-.45.75a12.64,12.64,0,0,0-.43,2Zm-42.09-.2c.13.24.24.45.6.45a9.07,9.07,0,0,0,1.22-.27c.16-.1.21-.22.44-.31a2.66,2.66,0,0,0,.51-.24,7.46,7.46,0,0,0,.72-.77c.18-.4.23-.65.44-1a3,3,0,0,0-.43-.86A2.75,2.75,0,0,0,13.6,62c-.44,0-.68.33-1,.51-.05,0-.76.75-.8.8a5,5,0,0,0-.54,1,5.83,5.83,0,0,1-.37,1.22Zm9.76-6.07a2.36,2.36,0,0,0,1.55.75h.24a9.74,9.74,0,0,0,1.32-.78c.25-.3.32-.23.62-.43s.3-.4.46-.64c-.08-.1-1.58-.61-1.85-.74-.24.16-.26.31-.58.46-.48.24-.27.06-.63.42-.2.2-.37.09-.6.44s-.33.22-.53.52Zm-18.28,0a2.2,2.2,0,0,0,1.6.75h.19a7,7,0,0,0,1.29-.81c.33-.38.86-.25,1.06-1.09-.34-.17-.6-.15-.9-.29s-.33-.35-.85-.35c-.08,0-.48.32-.65.4-.4.2-.31.08-.61.42-.14.16-.36.17-.59.46s-.36.24-.54.51Z"/><path class="cls-2" d="M149.74,61.11a7.55,7.55,0,0,0-2.08-.34,15.86,15.86,0,0,1-2.25.19,5,5,0,0,0-1.82.62c-.13.09-.19.19-.31.29s-.26.13-.37.22-.43.67-.49.76a10.42,10.42,0,0,0-.65,1.79,3.67,3.67,0,0,0,.18,2.07,8.58,8.58,0,0,1,.37.82c.06.11.43.57.54.71a3.9,3.9,0,0,0,1.8.68h.75c.42,0,.57-.3,1.1-.3a2.75,2.75,0,0,0,1.15-.08c.9-.23.73.13,1,.13h2c.61,0,.15-2,.15-2.53v-1.2c0-.74.16-1.39.15-2,0-.89.4-1.36.4-1.84a2.24,2.24,0,0,0-.1-.55c-.42.48-.95.29-1.55.6Zm35.42,0c-.37,0-.81-.19-1.28-.27a6.68,6.68,0,0,0-1.41,0c-.51,0-.8.15-1.4.15a1.83,1.83,0,0,0-1.31.29c-.52.28-.49.12-1,.55a5.6,5.6,0,0,0-.49.3,3.82,3.82,0,0,1-.28.52,4.62,4.62,0,0,0-.86,2.27V66a2.43,2.43,0,0,0,.37,1.07c.26.66.13.45.57.88.17.17.1.28.31.38s.32.14.51.24a1.78,1.78,0,0,0,1.18.31h.15a10.24,10.24,0,0,0,1.64-.25c.5,0,1.28-.19,1.74-.19.14,0,.42.19.5.19h2c.52,0,.19-1.19.19-1.69,0-.68-.24-1.08-.24-1.94a7.44,7.44,0,0,0,.19-.94c0-.33.08-.72.1-1.1s.09-.76.15-1a6.28,6.28,0,0,0,.25-.94v-.55c-.22.06-.12.21-.74.36a2.84,2.84,0,0,0-.85.29Zm-16.74.25c-.14,0-.41-.45-.45-.6h-.3l-3.43.31c.12.17.17.09.31.24s.08.27.2.39.19.09.35.25.14.2.27.33A3.88,3.88,0,0,1,166,64l0,1.89-.28,2.39c0,.07.12.26.15.39h2.1c.37,0,.22-.68.23-.89l.06-.65c.07,0,.22-.2.25-.2s2.1.95,2.36,1.08a3,3,0,0,1,.5.35,5.66,5.66,0,0,0,.66.23,3.8,3.8,0,0,0,1.41.33h0c.87,0,1.16-.3,1.84-.31l.36-.38a4.36,4.36,0,0,1-.81-.4c-.31-.31-.36-.26-.76-.48-.17-.1-.18-.17-.32-.28s-.28-.11-.44-.21c-.54-.31-.26-.35-.46-.77.15-.3,1.38-1,1.46-1.13a3.93,3.93,0,0,1,.46-.83A2.74,2.74,0,0,0,175,63c0-1.19-.19-1-.57-1.62-.23-.41-.1-.35-.58-.51-.13,0-.77-.26-.84-.26h-1.25c-.18,0-.46.18-.8.2s-.67.09-.94.1c-.87,0-1,.45-1.6.45Zm-64.55,0c-.29,0-.37-.6-.6-.6h-.2l-3.43.31c.12.17.16.09.31.24s.08.23.22.37.25.15.35.25.15.24.25.35a3.11,3.11,0,0,1,.61,1.78v1.79c0,.53-.2.83-.2,1.44a3.47,3.47,0,0,1-.06.74c-.08.41,0,.32.11.65h2.09c.38,0,.25-.68.25-.94s.09-.8.3-.8.91.41,1.2.49a1.06,1.06,0,0,1,.53.32,2.55,2.55,0,0,0,.63.27c.3.12.29.21.51.33a4.6,4.6,0,0,0,.65.25,3.8,3.8,0,0,0,1.41.33H109c.8,0,1.06-.3,1.74-.3l.35-.39a3,3,0,0,1-.81-.44,3.26,3.26,0,0,0-.78-.46c-.17-.1-.12-.18-.31-.29s-.27-.11-.43-.21c-.46-.31-.25-.37-.46-.79.22-.25,1.38-.91,1.48-1.11a3.71,3.71,0,0,0,.67-2,1.86,1.86,0,0,0-.55-1.59c-.28-.39-.09-.3-.6-.5-.06,0-.81-.25-.85-.25h-1.24c-.18,0-.46.18-.8.2l-.9.1c-.84.06-1.16.45-1.59.45Zm48.76.8c.06.08.11.2.25.2.45,0,.63-.16.8.25s-.24.54-.37.72-.58,1.74-.58,1.76v.85c0,.34.28.7.37,1.07.13.54.26.56.57.88s.34.51.81.64.75.39,1.09.39h.3c.26,0,.47-.29,1-.35.36,0,.82-.12,1.19-.14a7.73,7.73,0,0,1,1.17-.13c.34.08.78.37,1,.37h2c.43,0,.22-.7.16-1s0-.46,0-.67-.19-.35-.19-.55v-.85a1.54,1.54,0,0,1,.15-.55,4.78,4.78,0,0,0,.06-.68c0-.28.13-1,.14-1.31a5,5,0,0,1,.18-1.26c.15-.51.35-.57.12-1H161.4c-.62,0-1.49-.27-1.49.4,0,1.25.38,2.93-.2,3.93a4.67,4.67,0,0,0-.35.75c-.16.36-.3.36-.49.65a3.17,3.17,0,0,1-1.36.89h-.34A2.57,2.57,0,0,1,156,66.8a1.79,1.79,0,0,1-.44-1.41V65c0-1.23.69-1.65,1.22-2.37a5.32,5.32,0,0,1,1-.8,8.84,8.84,0,0,0,1.08-.76c-.31-.47-1-.19-1.54-.2h-2c-.32,0-1.78,0-2,0s-.59,1-.72,1.28Zm-40.19,3a4.06,4.06,0,0,0,.68,2.56,3.48,3.48,0,0,0,.91.73,6.38,6.38,0,0,0,1.4.24l1.14,0,.85-.12h0c.27,0,.27.1.55.1h1.89c.33,0,.33-.14.65-.14a2.07,2.07,0,0,0,.23-.66c.11-.42.21-.33.37-.59a4,4,0,0,0,.22-.67c.07-.17.25-.34.37-.57l-.15-.25c-.12.07-.37.15-.48.22a2.3,2.3,0,0,1-.4.29c-.4.19-.62.41-.88.52a3.81,3.81,0,0,0-1,.4,2.25,2.25,0,0,1-1.13.26H117a1.79,1.79,0,0,1-1.48-.91c-.16-.38-.3-.25-.41-.78a1.13,1.13,0,0,1,.2-1h2.49c.31,0,.39-.16.69-.16h1.85l.75.11a2.21,2.21,0,0,0,.6-1.64,3.69,3.69,0,0,0-.77-1.63,2.75,2.75,0,0,0-1.56-.83c-1-.24-.69-.4-1.89-.06-.66.19-1.4.14-2.07.28-.4.08-.4.29-.76.43-.65.25-.3.17-.69.51a4.53,4.53,0,0,0-1.48,3.29Zm78.45-4.28-.26,0-1.83.33h-.05a4.29,4.29,0,0,1-.46-.21l-.14.11c.12.27,0,.4.25.69a4.64,4.64,0,0,1,.33.67,2.76,2.76,0,0,1,.36,1.63v.79A14.59,14.59,0,0,1,189,67a5.69,5.69,0,0,1-.29.85c-.18.58-.05.45.06.9.49,0,.89,0,1.44,0s.84.09,1.07-.39L191.14,67v-.74a2.48,2.48,0,0,1,.34-1.4c.08-.22.12-.46.2-.65s.23-.31.35-.54c.28-.56.38-.56.85-.9.21-.14.17-.25.5-.4s.45-.1.59-.29a5.63,5.63,0,0,0,1.05.35c.22.1.44.55.61.78.49.69-.07,1.64-.24,2.17s-.29.5-.49.91a3,3,0,0,1-.22.48c-.14.18-.18.08-.34.35a4.94,4.94,0,0,1-.67.72c-.13.13-.3.18-.41.29s0,.39-.32.42l-.1.24.14.1a1.38,1.38,0,0,1,.8-.25,8.93,8.93,0,0,0,1-.1c.84,0,1.31.1,2,.1h.75c.55,0,.74-.12.88-.56s.52-.78.52-1c0,0-.16-.18-.2-.25a5,5,0,0,0-.58.22c-.14.09-.33.28-.52.28,0,0-.25-.14-.25-.2,0-.55.19-.58.38-.86a1.71,1.71,0,0,0,.19-.46c.08-.26.17-.23.26-.39a6.35,6.35,0,0,0,.24-2.24,2.67,2.67,0,0,0-.24-1c-.1-.15-.44-.76-.5-.8a2.54,2.54,0,0,0-1.92-.62,13.48,13.48,0,0,0-2.6.44l-1.31.2c-.45-.09-.53-.59-1-.59ZM129,66a4.55,4.55,0,0,1-.65,1c-.41.32-.38.51-1.19.51h-.1c-1.31,0-1-.6-1.39-.9a1.65,1.65,0,0,0,.15-.59c0-.28-2.24-.25-2.64-.25a.45.45,0,0,0-.25.4v.1a2.77,2.77,0,0,0,.68,1.7,2.49,2.49,0,0,0,1.76.68h.8c.62,0,1.15-.14,1.94-.14s1.2.06,1.71-.38c.36-.31.81-.29,1.24-.86a5.76,5.76,0,0,1,.38-.66,1.42,1.42,0,0,0,.2-.84V65c0-.52-.36-.76-.6-1.09a1.66,1.66,0,0,0-1.34-.4c-.79,0-1.53.1-2.24.1-.88,0-1.49,0-1.49-.9,0-.21.38-.52.53-.7a1.73,1.73,0,0,1,1-.29h.1a1.14,1.14,0,0,1,1.07.43,8.27,8.27,0,0,0,.82.71h.35a1.22,1.22,0,0,0,.6-.3c.13.06,1.14.45,1.14.1v-.49c0-.42-.42-1.23-.73-1.31a10.17,10.17,0,0,0-1.56-.49h-.44c-.73,0-.8.35-1.8.35a7.12,7.12,0,0,0-2,.17,6.74,6.74,0,0,0-1.29.86,3.07,3.07,0,0,0-.66,1.5,5.2,5.2,0,0,0,.32.72c.19.45.07.37.48.62s.22.34.62.47a4.5,4.5,0,0,0,1.06,0c1.2,0,3.48-.36,3.48.85Zm72.87-5.13c-1.13,0-1.74-.16-1.74,1.15v.1a.89.89,0,0,0,.1.41l.45-.07c.15,0,.34.22.41.3L201,64.94V65a12.73,12.73,0,0,0,.1,1.3,1.53,1.53,0,0,0,.38,1.06c.23.4.13.54.53.91a2.17,2.17,0,0,0,1.08.36h4a11.53,11.53,0,0,0,.7-2.13l-.25-.15c-.2.13-.31.33-.46.43s-.47.15-.66.28-.15.22-.58.37a2.09,2.09,0,0,1-.79.16c-.55,0-.84-.51-1-.94-.22-.61-.44-.57-.44-1.55V63.85c0-.84.2-1.4,1-1.4l.51,0,1.49.18h.44a5.41,5.41,0,0,1,.45-.69c.23-.31.15-.54.3-.85l-.25-.25c-.65,0-2.49.41-2.49-.25,0-.32.93-.93,1.14-1.2s.44-.24.66-.54.37-.27.76-.46l-.12-.18a8.38,8.38,0,0,0-1.88.1,2.18,2.18,0,0,1-.91.14c-.45,0-.52.14-.89.16s-.56,0-.73.31-.3.29-.43.62a10.51,10.51,0,0,1-.79,1.35Zm-68.58,0h-.2c-.34,0-.35.77-.35,1.15v.1c0,.46.4.44.85.44.06.09.1.09.1.2V63c0,.51-.25.6-.25,1v1.34a7.26,7.26,0,0,0,.56,2.27c.07.09.55.84.55.85a5.84,5.84,0,0,0,1.18.26h3.54c.25,0,.59-.59.66-.87s.11-.41.16-.64a1.86,1.86,0,0,1,.27-.52c0-.23-.3-.1-.6-.1-.23.44-1.54.92-2,1.19-.3-.16-.55-.16-.79-.41a4.58,4.58,0,0,1-.5-.74,6.26,6.26,0,0,1-.4-2V64a4.69,4.69,0,0,1,.25-.9c.07-.3.13-.65.49-.65H138l1.25.16A.77.77,0,0,0,140,62a4.37,4.37,0,0,1,.13-.52c0-.08.25-.37.25-.4,0-.58-1.87-.11-2.14-.14l-.46,0-.24-.41a15.19,15.19,0,0,1,1.21-1.18c.21-.21.59-.34.68-.51.24-.39.38-.14.65-.54l-.24-.15c-.36,0-.57.1-1.05.1a2.34,2.34,0,0,0-1,.19c-.75.15-1.4,0-2.05.33a6,6,0,0,0-.88,1.46,3.34,3.34,0,0,1-.56.64c-.25.2-.55,0-1,0Zm46.37,3.88v.6l.06.7c.29.43.8,1.44,1.44,1.44h.2c.64,0,1.55-.91,1.85-1.29a7.88,7.88,0,0,0,.84-2.34c0-1.21-1.22-1.55-2-1.94a5.17,5.17,0,0,0-.82.48c-.41.27-.36.36-.66.63s-.32.31-.5.79-.36.37-.36.93ZM144.27,65v.3c0,.69.83,2.19,1.44,2.19H146c.65,0,.67-.29,1.07-.53a6.29,6.29,0,0,0,.82-.81c.1-.17.14-.38.23-.57s.22-.19.33-.52a9.05,9.05,0,0,1,.39-1.25,3.58,3.58,0,0,1-.32-.68,2,2,0,0,0-.49-.55,9.89,9.89,0,0,0-1.38-.66c-.36.17-.5.32-.85.49s-.38.37-.68.66a4.82,4.82,0,0,0-.81,1.93Zm24.2,1a4,4,0,0,0,1.73-.36c.43-.37.79-.44,1.17-.93.86-1.1.94-1.89-.26-2.69l-.55-.05s-.85.68-.89.74-.59.6-.81.89-.28.85-.49,1.2-.29,1.2.1,1.2Zm-64.9-.45c.05.1.19.45.3.45a7.43,7.43,0,0,0,1.37-.18s.94-.52,1-.56a3,3,0,0,0,1.19-1.9,1.58,1.58,0,0,0-.27-.88,5.1,5.1,0,0,0-.68-.46h-.4a5.34,5.34,0,0,0-.91.58,5.83,5.83,0,0,0-.69.8c-.43.6-.21.34-.47,1-.08.21-.2.32-.27.48s-.07.48-.15.65Zm11.71-2.19c.16.11.28.3.55.3h2.59a.68.68,0,0,0,.59-.3c-.13-.55-.16-.71-.56-1s-.31-.46-1.13-.46h-.25c-.53,0-.72.36-1.1.55s-.43.55-.69.94Z"/><path class="cls-2" d="M33.37,10.57H0l.05.49c.22.32.55.56.65.87A2.94,2.94,0,0,0,1.24,13a2.87,2.87,0,0,1,.38,1.23,4,4,0,0,0,.45,1.16c.1.23.84,5.13.84,5.48V44.14a11.73,11.73,0,0,1-.44,2,3.49,3.49,0,0,1-.63,1.77c-.29.53-.27,1.23-.66,1.74s-.49,1-.89,1.59l-.08.08a1.63,1.63,0,0,0,1,.4l.64.06,4.85-.38h.72l6.91.31h3.19c1.9,0,3.77,0,5.56-.16,1-.07,1.65-.16,2.71-.15.74,0,.64-.26,1.11-.32s.86-.1,1.34-.18a6.7,6.7,0,0,0,2.37-.5c.72-.46,1.56-.44,2.07-.87a2.93,2.93,0,0,1,.93-.52,4.9,4.9,0,0,0,.84-.59c.3-.18.72-.24.94-.5.44-.53.35-.31.83-.69.26-.2,1.39-1.14,1.54-1.33s.56-.44.75-.69.34-.64.54-.9a17.26,17.26,0,0,0,1.34-1.53,11.78,11.78,0,0,0,1-2c.16-.46.35-.49.55-.89a4.38,4.38,0,0,0,.33-1.11c.21-.81.58-.82.78-2.18.15-1,.46-1.25.66-2.23A21,21,0,0,0,44,31.61v-5a18.06,18.06,0,0,0-.24-3.05c-.2-1-.53-1.37-.75-2.62-.15-.8-.14-.58-.5-1.1a6.18,6.18,0,0,1-.4-1.28c-.18-.48-.42-.59-.61-1.07-.33-.79-.08-.45-.63-1.05a8.62,8.62,0,0,1-.58-1c-.15-.24-.59-.52-.83-.85A18,18,0,0,0,37.68,13a11.94,11.94,0,0,0-2-1.39A2.13,2.13,0,0,1,34.66,11c-.33-.26-.94-.16-1.29-.39Zm69.42,0H93.25c-.24.16-2,.11-2.69.49l-.1.72c0,.16.81,1.21,1,1.72a3.42,3.42,0,0,0,.5.86,4.31,4.31,0,0,1,.32,1.13c.18.78.45,1.13.62,2.1a16.87,16.87,0,0,1,.11,2.7c0,2,.24,3.35.24,5.3V28.4c0,.45,0,.93,0,1.37s.32.72.32,1.12V38a5,5,0,0,1-.24,1.69,9.15,9.15,0,0,0-.07,1.85c0,.59-.24,1-.24,1.68s-.07,1.27-.08,1.93c0,.86-.53,2.36-.63,3.3-.12,1.09-.22,2.59-.24,3.68l.47.25a6.66,6.66,0,0,1,1.16-.68A3.56,3.56,0,0,0,95,51.11C95.11,51,97.52,50,97.54,50c.36,0,.81.41,1.19.56a11.26,11.26,0,0,1,1.39.45,4.57,4.57,0,0,0,2.91.67h2.54a10.28,10.28,0,0,0,1.89-.18c1-.16.78-.34,1.45-.62a13,13,0,0,1,1.77-.3c.7-.14,1.07-.36,1.67-.48s1.18-.15,1.78-.29.86-.48,1.41-.67a2.74,2.74,0,0,0,1.38-.69,2.14,2.14,0,0,1,.69-.35c.41-.2.33-.25.64-.48.55-.41.72-.33,1.18-.89.24-.3.35-.24.6-.44s.25-.35.47-.57.43-.27.54-.49c.23-.42.06-.28.42-.63.51-.51.47-.89.84-1.31.66-.75.35-.49.76-1.32a4.49,4.49,0,0,0,.63-1.46,13.64,13.64,0,0,0,.81-3.44v-6a8.73,8.73,0,0,0-.87-3.06c-.29-.89-.39-.6-.72-1.2s-.59-.69-.85-1.15a1.15,1.15,0,0,0-.47-.48c-.42-.29-.19-.21-.45-.52a1.59,1.59,0,0,0-.59-.36c-.3-.16-.31-.32-.56-.49-.41-.27-.94-.29-1.36-.54a2.1,2.1,0,0,0-1.45-.55h-3.89c-1.31,0-1.61.43-2.6.67-.58.15-2.28.69-2.65.7-1.28,0-2,.2-3,.23-1.49.05-1.68.89-2.47.89a1.52,1.52,0,0,1-.62-.32l-.09-.89V22.46c0-.55.16-.73.15-1.45a10,10,0,0,1,.05-1.56c.17-1,0-2.15.14-3.06a26.12,26.12,0,0,1,.26-3,7.78,7.78,0,0,0,.35-2.87ZM80.92,23.5h-.87c-.8,0-1.46,0-2.23-.08s-1.39-.39-2-.4c-.56,1.07-.25,1.31-.23,2.57,0,.5,0,1,0,1.53s.16.77.16,1.36v5.06a18.61,18.61,0,0,1-.22,2.67,20.93,20.93,0,0,1-.71,2.24c-.27,1.37-.54,1.1-.87,2.1a1.71,1.71,0,0,1-.5.94c-.32.33-.3.59-.56,1A9.32,9.32,0,0,1,71.56,44c-.26.22-.46.5-.72.71s-.61.31-.91.61a17.68,17.68,0,0,1-1.78,1.18c-.44.11-2.13.61-2.34.61h-.63s-2.34-.69-2.44-.75c-.38-.2-.48-.44-.93-.67-.66-.34-.38-.47-.8-.8s-.35-.31-.66-.94a11.06,11.06,0,0,1-.59-1c-.07-.22-.63-2.45-.63-2.59V37.55s.69-2.59.72-2.65c.22-.39.36-.26.67-1,.16-.41.46-.45.71-1a14.64,14.64,0,0,1,3.22-3.57c.39-.25.51-.52.9-.78a6.28,6.28,0,0,0,1-.71c.38-.33.5-.18,1-.69s.68-.34,1.07-.6.3-.36,1-.69c.51-.24.62-.46,1-.66a6.36,6.36,0,0,0,2-1.4c-.86-.58-1-.4-2.3-.4-.91,0-1.86.09-2.63.08h-2.7c-1.1,0-1.84.24-2.55.24l-8.42-.06L51,23.58c-.41.28-.38.6-.56,1.12s-.38.51-.56,1.12a4.25,4.25,0,0,1-.44,1.24,2.19,2.19,0,0,0-.5,1.18,1,1,0,0,0,.39.8,7.39,7.39,0,0,1,2.79-.56h.31c.47,0,1.44.1,1.44.48a26.59,26.59,0,0,1-1.67,2.09c-.33.56-.39.17-.78,1.15-.27.69-.58.63-.75,1.16a4.79,4.79,0,0,1-.46,1.46,3.08,3.08,0,0,0-.46,1.47c-.09.61-.11,1.1-.22,1.7s-.44,1-.44,1.49v2.09a2.44,2.44,0,0,0,.3,1,4.74,4.74,0,0,1,.21,1.06,4.12,4.12,0,0,0,.67,2,3.93,3.93,0,0,1,.38.9c.3.75.27.39.56.8s.22.57.47.81a3.44,3.44,0,0,1,.66.7A6.22,6.22,0,0,0,53.78,50c.39.26.11.35.69.58.35.14.7.21,1,.35a3.76,3.76,0,0,0,2,.65,14.79,14.79,0,0,0,2.31.32,13.11,13.11,0,0,0,4.06-.81,5.93,5.93,0,0,1,2-.5c.3-.06.79,0,1.09-.11.49-.14.33-.28,1-.27a20.62,20.62,0,0,0,4.41-.45c.66-.12,1.39-.53,2-.2.33.19.48,1.35.71,1.77H81.8c.92,0,1.27.24,2.06.24a2.86,2.86,0,0,0,1.2-.32c-.1-.41-.37-.89-.51-1.49A11.07,11.07,0,0,0,84,48.26a23,23,0,0,1-.29-3.88v-5c0-3.29.65-5.51.88-8.59A5.7,5.7,0,0,1,85,28.92a9.19,9.19,0,0,0,.41-2,15.35,15.35,0,0,1,.32-2c.38-1.17.35-.36.34-1.88l-.23-.17a18.54,18.54,0,0,1-4.93.64Zm90.73.89c-.09.06-.32.18-.32.32,0,.3.4.44.61.91s.17.65.57,1a10.67,10.67,0,0,1,1.18,1.94,1.65,1.65,0,0,0,.49,1c.29.31.28.72.37,1.24s.06.82.13,1.39.39.89.39,1.21v8.11c0,.47-.24.71-.3,1.14s-.07,1-.1,1.35a18.89,18.89,0,0,1-.33,2.55,9.85,9.85,0,0,0-.63,2.26c-.08.69-.63,2.23-.63,2.33,0,.56,1.24.4,1.67.4l5,0,3.34.1c.77-.51.15-1.43,0-2.18a15.94,15.94,0,0,1-.34-2.71V41.41c0-2.35,2.33-7.13,3.4-8.54a18.66,18.66,0,0,1,1.39-1.56c.29-.3.55-.25.84-.6.46-.57.42-.3.84-.68s.21-.4.79-.64a1.83,1.83,0,0,0,1-.57,1.9,1.9,0,0,1,1.12-.4A7.35,7.35,0,0,0,193.2,28h.08a8.47,8.47,0,0,1,4.32,1.58c.33.34.19.37.67.77s.32.53.47,1c.27.92.74,1,.74,2.3v2.73c0,1.38-.41,1.47-.74,2.46s-.63,1.23-1,2.27c-.16.42-.41.43-.62,1s-.17.6-.59,1-.35.71-.6,1a3.91,3.91,0,0,0-.7,1,26.83,26.83,0,0,1-3.29,3.18c-.37.25-3.44,2.77-3.58,3,.17.12.45.4.72.4,1.61,0,3-.27,4.37-.32.74,0,1.58,0,2.31,0a15.06,15.06,0,0,1,2.06-.32h1.75a13.63,13.63,0,0,0,2,.32,18.54,18.54,0,0,1,2.15.17c1,.11,3.62.28,4.32-.06.51-.24.42-1.09.72-1.6a16,16,0,0,0,.72-1.68c.27-.57,1.79-2.38,1.79-2.93s-.83-.35-1.17-.22c-.61.25-.58.49-1.19.64a2.85,2.85,0,0,0-1.35.49,2.08,2.08,0,0,1-1.38.46h-.64l-.87-.09c-.07-.11-.32-.35-.32-.41s1.56-2.17,1.75-2.57.5-.51.88-1.28c.24-.49.54-.59.8-1.35.21-.61.48-.86.66-1.51s.21-1.23.36-1.8a6,6,0,0,0,.48-1.68c.06-.73.08-1.33.08-2.09V32a12.93,12.93,0,0,0-.92-3.48,15.25,15.25,0,0,0-1.76-2.72c-.3-.45-.79-.62-1.19-1-.64-.56-.71-.4-1.51-.73a9.11,9.11,0,0,0-3.76-.7,11.88,11.88,0,0,0-4.94.72c-1.15.42-4.06.21-5,.62a18.68,18.68,0,0,1-2.36.42,3.64,3.64,0,0,0-2.2.68c-.55.26-1.82.54-2.06-.14-.35-1,.22-1.48-.43-2.46a44.92,44.92,0,0,1-5.24,1c-1.93,0-4.21.08-6.29.08ZM12.22,28.24V38.36a23.55,23.55,0,0,0,.86,7.23,3.11,3.11,0,0,0,2.24,1.75c.57.12,1.12.17,1.73.27s1.41.38,1.69.38h.48a26.7,26.7,0,0,0,3.44-.77c.22-.11.39-.31.61-.43a7.75,7.75,0,0,1,.85-.27c.49-.2.66-.52,1.35-.81.43-.18.77-.6,1.27-.88s.23-.09.56-.47.41-.24.68-.45c0,0,1-1,1.06-1.09a1.61,1.61,0,0,1,.53-.51c.34-.27.27-.42.48-.64s.35-.18.54-.5.09-.37.47-.64.47-.94.82-1.35a9.19,9.19,0,0,0,1.38-2.94,10.1,10.1,0,0,0,.61-1.56c.11-.56.17-1.33.28-1.88A6.7,6.7,0,0,0,34.48,31c0-.64.24-1.45.24-1.93a15.23,15.23,0,0,0-.52-2.92c-.15-.51-.18-.95-.29-1.48s-.37-.69-.57-1.18a8.33,8.33,0,0,0-.46-1.23,5.65,5.65,0,0,1-.62-1.14c-.18-.41-.46-.5-.72-1-.35-.73-.38-.51-.78-1s-.17-.36-.79-.89c-.36-.3-.5-.51-.93-.83s-.51-.56-1-.77c-.8-.34-.56-.42-1-.71a22.33,22.33,0,0,0-5.17-1.76H20.09c-.91,0-1,.48-2,.67-1.17.23-1.13.64-1.9.82-1.44.36-.88.44-1.77.94a6.13,6.13,0,0,0-1.28,1.52c-.18.73-.16,1.76-.32,2.41a13.89,13.89,0,0,0-.34,2.47c-.14,1.68-.23,3.4-.23,5.3Zm128.9-17.67h-2.55l-3.1.33-3.26,0L130,10.74c-.06,0-.31.25-.31.32a20,20,0,0,0,.68,2.92c.1.54.13,1.11.19,1.65s.4,1.23.4,1.45V37.47a10.06,10.06,0,0,0-.32,1.93,11.25,11.25,0,0,1-.11,2.13c-.19,1.08-.07,3.14-.2,4.3-.16,1.4-.57,2.33-.72,3.77a4.68,4.68,0,0,1-.38,1.87,2.7,2.7,0,0,0-.34,1.55l.57.12h.44c.31,0,1.3-.66,1.69-.74.86-.17,1-.47,1.59-.64a8.85,8.85,0,0,0,1.65-.51,2.8,2.8,0,0,1,1.7-.53c1.57,0,1.76,1,3.89,1h2.39c1.84,0,2.94-.69,3.24-2.18a6.33,6.33,0,0,1,.68-2c.32-.75.21-1.43.61-2.2-.63-.94-2.33.05-3.07.27-1,.31-2.83.23-3.45.77-.58-.28-1.14-.28-1.44-.88-.11-.24-.07-1.81-.14-2.26A9.62,9.62,0,0,1,139,41c0-1-.24-1.38-.24-2.17V29.12c0-.56.17-1.63.25-2.32a8.86,8.86,0,0,1,.26-1c.1-.42,0-.85.09-1.28a48.52,48.52,0,0,0,.28-4.94c.09-1.44.66-2.8.71-4.5s.8-2.18.8-4.5Zm10.57,13.9-.32.24a22.71,22.71,0,0,0,1.86,1.74c.2.21.74.77.91.92.5.44.42.72.79,1.05.95.86,1.85,3.62,1.85,5.44V44.14c0,.18-.32,1.52-.39,2-.1.75-.18,1.48-.25,2.24,0,.6-1.5,3.54-.23,3.54h.4a8.15,8.15,0,0,0,1-.24c.35,0,.9,0,1.27,0,.71,0,1.61-.09,2.47-.09h.16c.89,0,5.32.33,5.32-.32,0,0-.41-1.09-.47-1.36a11.32,11.32,0,0,1-.24-1.61,30.55,30.55,0,0,1-.48-3.29c0-1.36-.16-2.19-.16-3.53s-.16-2.44-.16-3.62l0-7.71.52-5.21V23.9c0-.3-.43-.45-.64-.56-.51.12-.89.16-1.48.27s-.9.33-1.4.44a14,14,0,0,1-3.24.34c-2.34,0-4.88.08-7.08.08ZM108.43,47.35h.64c.63,0,2-1.35,2.47-1.69s.53-.7.93-1.14.79-1.1.89-1.19a8.17,8.17,0,0,0,1.43-2.74c.2-.68.52-.75.63-1.45a17,17,0,0,0,.25-1.91V35.47a12.17,12.17,0,0,0-.41-3.12c-.4-.54-.4-.26-.67-1.09s-.35-.58-.73-1-.35-.54-.91-.85-.71-.57-1-.74-1-.2-1.33-.43a1.75,1.75,0,0,0-1.3-.45c-1,0-1,.31-1.49.66s-.79.73-1.27,1a10,10,0,0,0-2.12,2.35c-.21.32-.33.19-.56.56s-.23.48-.4.73a4,4,0,0,0-.71,1.52,8.62,8.62,0,0,0-.67,1.57,8.13,8.13,0,0,1-.44,1.81,23.34,23.34,0,0,0-.79,3.7c-.31,1.28.89,2.21,1.51,2.85.48.48.85.44,1.31.92s.91.48,1.4.84,1,.32,1.7.53.51.58,1.65.58Zm46.21-28.59c0,.83.38,1,1,1.12a9.26,9.26,0,0,1,1.75.49,23.76,23.76,0,0,0,3.66.8h.23c.77,0,1.9-1,2.53-1.31.48-.2.57-.45,1.16-.75s.79-.66,1.11-.8c.94-.39.59-.4,1.17-.75a4.25,4.25,0,0,0,1.17-.74c.33-.32.63-.25,1.15-.77s1-.37,1.26-.74c0,0-1.35-.88-1.46-.94-.63-.34-1.18-.23-1.82-.65s-1.26-.4-1.75-.72a3.16,3.16,0,0,0-1.81-.66,2.14,2.14,0,0,0-1.45.46c-.52.46-.84.37-1.31.7a5,5,0,0,1-1.23.76c-.34.14-.28.22-.51.45a2.74,2.74,0,0,1-.64.39c-.31.19-.69.55-1.1.82-.58.39-.48.55-1.11.89l-1,1-1,1Z"/><path class="cls-1" d="M121.48,16.12c-1,.72-1.83.75-2.5.08l-.45-.46a11.33,11.33,0,0,1-1.7-3.13.59.59,0,0,0-.16-.24l-.07-.07a.53.53,0,0,0-.58-.19c-.25.25,0,.92.65,2q1.47,3.09.61,3.94l-.34.34a2,2,0,0,1-2.65-.37l0,0-.15-.22-.26-.27c-.16-.15-.64-.12-1.45.08a2,2,0,0,1-1.13-.54l-.12-.11c-.73-.73-.7-1.61.08-2.64a14.16,14.16,0,0,1,3.67-2.08l.08-.08c.22-.28.29-.46.22-.53l0,0c-.14-.14-1,.37-2.72,1.52-1.51.81-2.59.89-3.26.22s-.67-1.55,0-2.68c.55-.56.73-.94.53-1.15a1.83,1.83,0,0,1,.34-2.3,1.9,1.9,0,0,1,2.73.15l.3.3a17,17,0,0,1,2,3,1.47,1.47,0,0,1,.37.22l.08-.08a50.4,50.4,0,0,0-2.62-5.18,7.66,7.66,0,0,1-.59-3.33,3.72,3.72,0,0,1,.56-1.93A2.5,2.5,0,0,1,114.43,0a.38.38,0,0,1,.17.08l0,.11-.15.15q-2.9,2.9.53,8.32l.75,1.9.08-.08c.13-.13-.18-1.05-.94-2.77-.5-1.56-.48-2.61.07-3.17l.08-.07c.55-.55,1.34-.58,2.35-.08l.41.34.56.72c.12.11.49.1,1.11,0a1.87,1.87,0,0,1,1.17.42l.3.3A1.83,1.83,0,0,1,121,8.36l-.46.46a12.17,12.17,0,0,1-3.67,1.7l-.22.23c-.21.2-.22.39,0,.57s.85,0,2-.68q3-1.52,4-.57l.27.27c.5.5.5,1.26,0,2.27l-.24.37c-.27.22-.47.4-.6.53s-.11.49.07,1.06A1.9,1.9,0,0,1,121.48,16.12Z"/></g></g></svg>