<svg id="Layer_1" data-name="Layer 1" xmlns="http://www.w3.org/2000/svg" viewBox="0 0 1935.29 682.35"><defs><style>.cls-1,.cls-2{fill:#217866;stroke:#fff;stroke-miterlimit:10;stroke-width:2px;}.cls-2{fill-rule:evenodd;}</style></defs><title>Монтажная область 2</title><path class="cls-1" d="M850.94,593.13l20,4.47a71.85,71.85,0,0,1-3,8.87,74,74,0,0,1-4.08,7.86l9.62,6.61q1.77,1.13,4.54,2.7L864.22,639.5c-2.51-1.34-5.13-2.88-7.82-4.64s-5.14-3.29-7.28-4.54a51.11,51.11,0,0,1-13.34,6.4,73,73,0,0,1-21,2.78q-18.45,0-27.45-7.67t-9-18.62a24.3,24.3,0,0,1,5.29-14.88q5.28-7,17.31-11.85A45.31,45.31,0,0,1,794,575.87a23.33,23.33,0,0,1-1.89-9.15,20.26,20.26,0,0,1,7.48-16.17c5-4.25,12.56-6.35,22.72-6.35,10.37,0,18,2,22.85,6s7.28,8.84,7.28,14.47a19.37,19.37,0,0,1-2.24,9.06,22.57,22.57,0,0,1-5.37,7,129,129,0,0,1-11.25,8.05,160.37,160.37,0,0,0,14,12.52,59.19,59.19,0,0,0,3.32-8.25ZM821.5,577a26.57,26.57,0,0,0,7.67-5.88c1.8-2.11,2.7-4.13,2.7-6a6.49,6.49,0,0,0-2.25-5,8.92,8.92,0,0,0-6.23-2.06A9.06,9.06,0,0,0,817,560.3a7,7,0,0,0-2.44,5.34c0,2.6,2.29,6.39,6.91,11.32Zm-9.13,22.4c-3.52,2.47-5.86,4.6-7,6.36a10,10,0,0,0-1.74,5.6,10.89,10.89,0,0,0,4,8.19,14.84,14.84,0,0,0,10.3,3.58c4.58,0,9.71-1.79,15.43-5.35q-8.19-6.32-21-18.38Z"/><path class="cls-2" d="M691,538.72H662.93c-.12,5.4,0,6.58,2.9,10.66,1.66,2.35,2.09,8.73,2.09,12.39q0,14.47,0,29c0,4.48,1.05,10.54.49,13.14-.85,3.91-.51,9.38-.49,14A99.14,99.14,0,0,1,666.59,631c-.22,1.75-.3,5-.65,6.58-.23,1-2.57,5.36-.74,5.23l5-.55c.94-2.6,5.56-3.62,9.05-3.62,5,0,10.56,3.62,14.94,3.62h3.17c1.2,0,5.75-2.23,8.25-2.62,3.42-.54,6.93-.38,10.13-1.18,3.48-.86,4.75-2.31,7.73-3.59,5.27-2.26,2.92-.29,7-4.27,2.2-2.13,4.79-1.81,6.25-4.6,2.12-4,1.5-3.55,4.5-6.82,1.08-1.18,5-15,5-17.62v-9.5c0-3.77-1.59-5.35-2.44-8.86-.75-3.06-1.29-6.36-3.44-7.87-2.52-1.78-2.88-4.07-6.16-5.15-1.34-.44-7.91-2.54-8.78-2.54h-6.34c-1.59,0-10.13,2.15-12.79,2.61-5.9,1-8.71-.53-12.56,2.82-6-4-3.74-7.27-3.17-14.92.44-5.81.45-13.78.45-19.45ZM494.52,573.09h-.45c-6.3,0-5-4.07-10.86-4.07h-16.3c-1.55,0-2.59,2.08-3.19,3.17l5.06,30.21-.51.08v29.4c0,3.72-.91,6.35-.91,11.3s.38,7.36-1,11.25c-.95,2.75-1.19,7.4-1.66,10.56-.65,4.45-1.35,7.8,1.72,9.91l7.24-.51,5,.09,11.32-.09c.42-1.56.9-1.2.9-1.81,0-5.36-2.26-8.94-2.26-12.21V649.06a8.06,8.06,0,0,1,3.43-6.52c4.14-2.79,3.63-.95,8.7-1.71,5.37-.81,11.9-2.05,15.94-4.43,2.35-1.38,4.81-1.52,7.7-2.25,5.84-1.47,3.24-2.27,6.13-4.29,5.08-3.52,6.31-5.55,9.09-11.26,1.3-2.65,3-3.3,3.81-6.15.57-2.07,1-6.8,1.28-9.11,1-7.47.68-10.2-1-17.5-.9-4-5.3-9.61-8.17-12.18-3.38-3-.78-2.13-6.05-3.91-1.48-.5-7-2.09-8.32-2.09h-.45c-3.09,0-11,1.52-13.67,2.17-2.46.6-3.85.66-6.53,1.17s-4.16,2.09-6.06,2.09Zm-387.95,1.36c-2-1.35-4.26-6.34-5-6.34-1.89,0-4.25,1.35-7.23,1.38-3.3,0-5.26.46-8.62.43-2.84,0-14.87.94-15.84,2.26,3.15.85,3,3,4.85,5.1,1.7,1.87,3.91,2.86,5.11,4.85,2,3.39,5,9.57,5,14.93l.26,23.54L83,636.85c.92,1.73,2.41,4.07,5,4.07h13.12c6.37,0,3.62-6.9,3.62-11.75v-1.81c0-1.09.74-1.34,1.37-2.27,2.17,1,2.86.37,5.61,2.09a19.18,19.18,0,0,0,5.61,2.08c5.22,1.28,4.6,3,10.65,5.19,3,1.09,2.57,1.34,4.65,3,1.56,1.29,3.37,1.44,5.43,2.26,2.21.88,10.07,3.43,12.41,3.43h6.79c3.92,0,4.14-2.27,8.13-2.27s5.66-1.23,7.26-3.61c-1.61-2.19-5.2-2.14-7.35-4-1.69-1.44,0-1.1-2.91-2.51a26.33,26.33,0,0,1-3.79-2.1c-1.22-.85-1.7-1.76-2.87-2.55-1.41-1-2.78-1-4-1.88a14.42,14.42,0,0,1-4.42-7.34c1.53-2.28,10.62-6.13,13-9.66,1.39-2.1,3.69-5,4.31-7,.44-1.46,2.19-8,2.19-9.56v-2.27a37.19,37.19,0,0,0-1.44-8.5c-1.09-4.34-.54-3.64-3.82-6.13s0-2.17-5.86-4.1c-1.78-.59-6.45-2.07-8.34-2.07h-3.17c-7.49,0-12.48,1.48-19.89,2.3-1.64.18-7.94,1-9.23,1.62-3.45,1.5-3.28,2.43-8.45,2.87ZM356,538.72H324.31c0,2.51,4.22,9.88,5.53,11.66,1.45,2,1.71,11.75,1.71,15.47v28c0,8-.32,14.72-.43,22.63-.11,7.65-3.64,13.91-3.64,19.88,0,1.76.6,4.52,2.26,4.52h3.18c2.58,0,3.56-.9,5.43-.9s2.84.9,5.43.9h4.07c1.58,0,3-2.48,3.62-3.62-1.25-5.37-1.55-11.93.91-17.18s.77-11.75,4.87-15.94c1.94-2,1.79-4.52,3.45-6.95.78-1.16,1.34-1.32,2.28-2.7,1.11-1.61.93-2.31,1.78-3.65,1.31-2.06,9.32-9.2,12.06-9.2,8.09,0,12.12,5.51,15.34,10.41l.51,6.32v.91c0,12.06-20.6,32.87-29.42,37.53,2.69,5.09,7.17,2.72,14.48,2.72h18.11c6.29,0,12.11.58,17-1.07,2.76-.92,2.64-2.66,3.41-5.63,1-3.72,2-3,3.39-5.88l-.76-1.59L409,626l-1.88-4c6-6.84,9.51-9.67,9.51-22.61v-4.07a45,45,0,0,0-1.26-11,46.94,46.94,0,0,0-4.49-8.18c-.42-.49-6.55-5.67-6.89-5.77-1.17-.36-9.46-2.24-10.45-2.24h-1.81c-3.89,0-15.23,2-17.66,3.16-5.4,2.53-3.28.68-8.32,2.08-1.24.35-8,2.45-8.42,2.45-2,0-4.08-2.84-4.08-5l.08-1.35L356,538.72Zm202.36,43.41,7.71,1.35,1.79,3.17c-1.29,2.44-2.68,2.81-3.63,4.52s-1,4-2.09,6.05c-3.47,6.31-2.21,4.85-3.43,12.85-1.26,8.26,3.37,20.82,8.07,24.25,4.19,3.06,2.51,4.28,10,6.33,4.83,1.33,7.44,3.78,13,1.33,7.5-3.31,19.12-3.08,27.92-5.13,2.81,1.49,5.28,4.07,9.51,4.07h.9c5.8,0,18.56,1.3,18.56-3.62,0-1.52-2.71-5.82-2.71-11.3V607.91c0-6.84,2-12.1,3-17.82.9-5.41,2-13.34,2.44-18.36-.71-1.05-2.48-2.71-4.08-2.71-3.26,0-6.24.71-8.6.71s-5.34-.71-8.6-.71c-1.6,0-3,1.71-3.62,2.71v20.35c0,2.47.3,8.18-.16,10.25-.57,2.57-2.24,3.39-3.28,7.11-1.8,6.42-4.15,8.27-7.76,12.6-2.22,2.67-8.65,7.58-13.24,7.58h-1.37c-4.35,0-5.48-2.8-8.75-4.37-4.06-2-2.87-4.28-5.41-7.72-4.49-6.08,0-14.35,1.87-20.09,1.11-3.4,3.14-3.79,5.34-7.78,1.57-2.85,4.09-4.55,6.78-6.34,1.59-1.06,1.94-2.28,3.06-3.28,1.35-1.19,3.06-1.27,4.45-2.33,2.65-2,4.82-4.09,8.88-5.29l-2.18-2.95c-9.78,0-21.16.45-32.59.45-14.67,0-20.53-2.24-21.73,12.21ZM288.55,617c-3.26,6.15-7.08,13.57-16.3,13.57-12.58,0-12.67-3-12.67-13.57,0-.74-1.31-1.46-1.81-1.8-5.41,0-24.45-1.89-24.45,2.26v1.81c0,3.9,3.68,13.5,6.15,15.11,3.47,2.25,1.82,3,6,4.39,1.37.45,7.19,2.2,8.66,2.2h10c4.36,0,6.92-1.37,12.23-1.35,5,0,9.21-.32,13.59-.44,5.21-.14,5.45-3.37,9.31-4.72a18.9,18.9,0,0,0,7.8-6.23c2.05-3.16,3.94-4.9,4.66-9.37a37.69,37.69,0,0,0,.22-12.53c-1.39-8-1.79-4-5.24-8.78-1.73-2.38-6.78-3.15-10.88-3.15-12.48,0-35.31,5.13-35.31-7.24,0-.75,4.73-6,5.53-6.69,1.65-1.45,7.13-2.36,10.32-2.36,9.3,0,13.48,10.4,15.39,10.4h3.17c1.73,0,4.58-1.93,5.46-2l9.93,1.55a7.55,7.55,0,0,0,1.36-5v-.91c0-3.62-.42-5.23-2.38-7.12s-2.11-4-4.68-4.82c-4.6-1.44-10.15-4.34-14.67-4.34h-2.72c-7.05,0-7.3,3.18-16.3,3.17-6.47,0-12.83.07-18,1.44-3.36.88-3.34,2-6.11,3.4-3.86,1.93-3.22.18-5.82,4.12-2,3-3.12,1.14-4,5.92-.33,1.72-1.72,6.7-1.66,8.12a15.84,15.84,0,0,0,6.85,12.54c6.88,5.15,3.49,4.26,15.21,4.26,6.47,0,13-.11,19.48,0a35.73,35.73,0,0,1,8.61,1.35c3.25,1.39,2.34,3.32,3.15,6.8Zm-96.88-43.86-2.26,3.62c1.53,2.28,3.49,2.74,4.59,5.35a50.48,50.48,0,0,0,3.35,6.61c1.78,3.15,2,13.38,2,18.34,0,5.56-.94,11.1-.91,16.27a41.73,41.73,0,0,1-.54,8.05c-.48,2.56-2.17,3.79-2.17,6.88v3.16c0,1,.31,1.36,1.35,1.36h3.17c3.27,0,4-1.81,7.25-1.81h5.88c3.14,0,4.19,1.81,6.79,1.81,4.27,0-1.36-30.47-1.36-34.37V583c0-2.14,2.27-4.46,2.27-8.59v-1.81c0-1.47-.39-.34-.92-2.16l-4.06-.56a75.86,75.86,0,0,0-12.06,1.53c-5.37,2.19-5.22,1.64-12.39,1.64Zm-166.59,0c-.65,1-1.35,1.5-1.35,3.16v.46c0,1.8,2.52,2.58,3.52,3.71s1.54,3.52,2,5.25c1.27,4.86,3.54,3.72,3.54,11.39v24.42c0,.81-1.53,9.49-1.79,10.41-1.6,5.65-1.38,3.31-1.33,10.32l1.31,1c3.12-.72,8.43-2.26,11.77-2.26h5c2.54,0,4,1.26,6.39,1.88l1.2-1,.56-4c.68-4.59-2.75-14.37-2.72-19,0-3.24.36-7.62-.18-10.68a52,52,0,0,1-1.18-9.67c0-3.95.16-10.61.79-13.68C53,582.55,55,573.5,55,572.18c0-1-.16-.52-.46-1.75l-4.07-.51c-6.6-1-16.36,3.17-25.35,3.17Zm661.39,44.32c0,.74,2.91,3.43,3.44,4.24,2,3,.91,2,4.41,3.74,4.4,2.16,4,4.68,11.61,4.68h.91c5.15,0,7.68-7.39,10.94-9.86,1.68-1.27,6.26-11.39,6.26-14.56V598c0-10.54-9.49-14-16.3-17.64-2.28,1.53-6.9,4.26-8.15,6.33-.92,1.54-2.42,2.27-3.45,3.79-1.31,1.95-.93,2.66-2.76,4.47-2.88,2.82-2.42,6.68-3.68,10.79-.8,2.59-3.23,9.26-3.23,11.71Zm-198.74-3.62v3.62c0,4.41,2.58,6.83,5.74,8.29,3.69,1.69,5.22,3.92,10.11,3.92H504c4.17,0,10.85-6.24,12.05-9.23,3-7.51,5.15-5.48,5.15-16.55v-1.36c0-9.38-1.77-10.2-5.33-15.93-1.5-2.42-4.18-2.9-6.93-3.92-4.48-1.65-5-.75-8.11.86-3.43,1.77-3.22,2.41-5.12,5.73-1.63,2.84-3.05,2.82-4,6.83s-4,13.76-4,17.74ZM105.21,612c1.15,2.17,2.2,4.07,5.43,4.07,1.11,0,10.41-1.93,11.16-2.42,1.44-.93,1.88-2,4-2.83a24.09,24.09,0,0,0,4.64-2.15,67.74,67.74,0,0,0,6.52-7.06c1.65-3.62,2.13-5.86,4.06-9.51-1.28-2.66-1.9-5.79-3.95-7.81-.94-.94-5.65-4.85-6.91-4.85-4,0-6.17,3-9.37,4.67-.41.21-6.92,6.82-7.21,7.26-1.25,1.85-4.51,7.31-5,9.51A54.28,54.28,0,0,1,105.21,612Zm88.73-55.17c2,2.93,9.06,6.78,14,6.78h2.26c1,0,11.37-6.38,12-7.06,2.32-2.69,2.92-2.08,5.64-3.86,2.12-1.4,2.73-3.7,4.14-5.81-.7-1-14.3-5.61-16.75-6.78-2.21,1.48-2.38,2.83-5.26,4.23-4.38,2.12-2.45.5-5.72,3.79-1.83,1.85-3.44.82-5.5,4-1.94,3-3,2-4.79,4.71Zm-166.14,0c1.78,3.36,9.34,6.78,14.49,6.78h1.8c1.17,0,10.93-6.43,11.69-7.32,3-3.47,7.82-2.27,9.59-9.86-3-1.6-5.45-1.45-8.16-2.7s-3-3.18-7.68-3.18c-.78,0-4.42,2.89-5.89,3.62C40,546,40.76,545,38,548c-1.25,1.42-3.27,1.55-5.33,4.17-1.84,2.34-3.29,2.2-4.9,4.6Z"/><path class="cls-2" d="M1367.5,571.11c-3.92-.92-13.92-3.87-18.92-3.08a143.07,143.07,0,0,1-20.47,1.72c-4.11,0-14.2,3.83-16.58,5.59a34.9,34.9,0,0,0-2.76,2.67c-1.28,1.18-2.43,1.18-3.41,2-.19.17-3.86,6.1-4.42,6.89-1.63,2.3-5,12.79-5.88,16.29-1.3,5-.66,14.89,1.63,18.73,1.45,2.44,2.1,5,3.35,7.51.48.95,3.88,5.2,4.88,6.43,1.81,2.22,12.07,6.22,16.4,6.22h6.79c3.82,0,5.19-2.71,10-2.71,6.29,0,4.7.64,10.51-.81,8.15-2.05,6.57,1.26,9.41,1.26h18.11c5.57,0,1.36-17.76,1.36-23.06V605.92c0-6.77,1.41-12.66,1.36-18.53-.08-8.1,3.62-12.42,3.62-16.74a18,18,0,0,0-.91-5c-3.77,4.32-8.65,2.58-14,5.43Zm321.86,0c-3.34-.28-7.35-1.71-11.59-2.45-4.85-.84-8.17-.35-12.87-.29s-7.24,1.38-12.66,1.38c-7.18,0-7.07,0-11.91,2.57s-4.49,1.11-9,5c-1.26,1.08-3.82,1.93-4.43,2.8-1,1.41-1.17,3.14-2.57,4.67-3.13,3.39-7.82,14.43-7.82,20.68v10.41c0,4.41,2,6.39,3.35,9.75,2.35,6,1.18,4,5.16,8,1.57,1.55,1,2.58,2.86,3.48,1.7.82,2.89,1.29,4.63,2.16,4.23,2.1,4.3,2.86,10.71,2.86h1.36c6.94,0,8.67-1.6,14.9-2.29,4.59-.51,11.65-1.78,15.88-1.78,1.2,0,3.73,1.81,4.52,1.81H1698c4.75,0,1.78-10.89,1.82-15.38,0-6.16-2.27-9.87-2.27-17.64,0-2.28,1.65-4,1.8-8.6.1-3,.68-6.49.91-9.93a87.69,87.69,0,0,1,1.33-9.54c.55-2.8,2.3-6,2.3-8.55v-5c-2,.55-1.15,1.86-6.71,3.26-2.77.7-5.57,1.15-7.78,2.63Zm-152.1,2.25c-1.29,0-3.73-4.13-4.08-5.42l-2.73-.15-31.22,2.86c1.12,1.53,1.51.81,2.85,2.12,1.69,1.66.66,2.52,1.84,3.6.86.79,1.7.84,3.13,2.3,1.16,1.19,1.31,1.78,2.47,3,2.13,2.12,5.56,11.85,5.56,15.71l-.23,17.16-2.49,21.73c-.08.66,1.07,2.41,1.36,3.62h19c3.41,0,2-6.18,2.16-8.15l.56-5.87c.57-.38,2-1.81,2.26-1.81,1,0,19,8.62,21.44,9.79,2.89,1.42,2.57,1.89,4.53,3.17,1.65,1.08,4.1,1.22,6,2.12a34.1,34.1,0,0,0,12.83,3h.45c7.85,0,10.55-2.71,16.65-2.81l3.27-3.52c-1.16-.31-6.53-2.79-7.3-3.56-2.88-2.9-3.33-2.44-6.9-4.41-1.61-.89-1.65-1.56-2.91-2.53s-2.54-1-4-1.88c-4.91-2.82-2.4-3.23-4.24-7.06,1.41-2.67,12.53-8.7,13.29-10.24,2.17-4.4,1.43-3.61,4.19-7.57,1.28-1.82,2-7.25,2-10.23,0-10.83-1.72-8.64-5.14-14.76-2.08-3.73-.93-3.18-5.33-4.63-1.12-.37-6.94-2.32-7.63-2.32h-11.32c-1.62,0-4.21,1.58-7.25,1.81-2.52.19-6.12.81-8.59.91-7.9.31-9.38,4.06-14.49,4.06Zm-586.69,0c-2.66,0-3.34-5.42-5.44-5.42l-1.82-.15-31.22,2.86c1.12,1.53,1.51.81,2.85,2.13s.73,2.12,2,3.44c.88.92,2.3,1.35,3.19,2.24s1.31,2.13,2.26,3.16c2.81,3.06,5.55,10.53,5.55,16.16v16.29c0,4.82-1.85,7.6-1.81,13.11a30.58,30.58,0,0,1-.57,6.68c-.68,3.72.32,3,1,6h19c3.44,0,2.26-6.24,2.26-8.59s.79-7.24,2.72-7.24c.83,0,8.29,3.66,10.93,4.46,3,.92,2.74,1.28,4.82,2.87,1.76,1.34,3.53,1.52,5.72,2.43,2.69,1.11,2.61,1.94,4.62,3.07s3.74,1.35,5.91,2.24a33.57,33.57,0,0,0,12.81,3h1.36c7.3,0,9.63-2.71,15.76-2.79l3.26-3.54c-2.55-1.35-5.35-1.91-7.37-3.95-2.37-2.4-4.46-2.54-7.13-4.18-1.54-.94-1-1.62-2.78-2.65-1.37-.82-2.44-1-3.92-2-4.19-2.74-2.31-3.3-4.16-7.15,2-2.25,12.55-8.25,13.46-10.08,2.89-5.86,6-9.31,6-18,0-9.51-1.3-9.2-5-14.46-2.49-3.56-.75-2.74-5.41-4.55-.58-.22-7.41-2.25-7.71-2.25H980.44c-1.61,0-4.2,1.58-7.24,1.81-2.39.18-5.85.74-8.15.9-7.64.53-10.55,4.07-14.48,4.07Zm443.18,7.24c.52.77,1,1.81,2.26,1.81,4.1,0,5.72-1.39,7.22,2.32,1.17,2.9-2.17,4.86-3.31,6.56-.25.37-5.26,15.78-5.26,16V615c0,3.12,2.55,6.41,3.35,9.76,1.16,4.86,2.34,5,5.15,8,2.48,2.6,3.12,4.64,7.34,5.78,3.38.92,6.83,3.61,10,3.61h2.72c2.32,0,4.27-2.63,9-3.17,3.33-.39,7.46-1.16,10.88-1.35,2.9-.16,8.51-1.59,10.6-1.12,3.09.71,7.11,3.38,8.87,3.38l.9-.14,15.85.14h.9c3.89,0,2-6.45,1.52-8.75-.4-2,.08-4.18-.24-6.1s-1.74-3.21-1.74-5v-7.69c0-2.37.85-3.07,1.38-5,.63-2.22.15-3.81.53-6.25s1.19-9.38,1.28-11.85a49.59,49.59,0,0,1,1.62-11.48c1.4-4.65,3.26-5.21,1.08-9.39l-7.69.06h-4.53c-5.68,0-13.58-2.48-13.58,3.62,0,11.39,3.52,26.66-1.82,35.72a55.34,55.34,0,0,0-3.16,6.79c-1.46,3.25-2.7,3.29-4.44,6-1.3,2-9.48,8.06-12.31,8.06H1435c-3.16,0-8.66-4.07-10.53-5.76-3.11-2.81-4-7.1-4-12.78v-3.63c0-11.18,6.28-15,11-21.53,1.09-1.5,7-6.26,9-7.26,1.32-.64,9.34-6.23,9.81-6.93-2.85-4.26-8.67-1.78-14-1.81-6,0-12.08,0-18.11,0-2.94,0-16.17-.36-18,.15-2.18.63-5.35,9.23-6.49,11.61Zm-365.32,27.13c0,13.85,1.94,14.12,6.18,23.23.64,1.39,6.66,6,8.3,6.63a55,55,0,0,0,12.68,2.25L1066,640l7.67-1.05h.45c2.47,0,2.51.91,5,.91h17.2c3,0,3-1.29,5.89-1.35a18.88,18.88,0,0,0,2.16-6c.95-3.77,1.86-3,3.28-5.31.87-1.43,1.37-4.1,2.07-6.08.57-1.62,2.23-3.11,3.37-5.25l-1.37-2.25c-1.17.61-3.41,1.35-4.37,2-1.29.84-1.87,1.89-3.63,2.7-3.63,1.69-5.68,3.69-8,4.66-4.27,1.78-5,1-9,3.7-2.3,1.54-6.58,2.35-10.33,2.35h-6.79c-5.71,0-11.76-4.33-13.43-8.28-1.47-3.47-2.75-2.27-3.74-7.12-.85-4.22.14-5.47,1.78-8.57h14.94c2.52,0,5.23.1,7.72,0,2.81-.09,3.56-1.38,6.31-1.38l16.78-.17,6.77,1.08c3-2,6.32-10.54,5.48-15-.88-4.69-4-12-7-14.8-4.58-4.36-6.91-5.74-14.2-7.51-9.22-2.25-6.24-3.64-17.2-.55-6,1.7-12.73,1.25-18.79,2.49-3.69.75-3.69,2.69-6.91,3.94-5.94,2.3-2.78,1.52-6.28,4.59a41.18,41.18,0,0,0-13.47,30Zm713-38.89-2.31-.29-16.7,3H1722c-.13,0-3.63-1.6-4.13-1.88l-1.31,1c1.15,2.4.32,3.63,2.34,6.26,1.63,2.13,1.6,3.76,2.93,6.12,2.69,4.72,3.34,7.58,3.34,14.75V605a140.36,140.36,0,0,1-1,19.35c-.4,2.64-1.88,5.06-2.69,7.72-1.59,5.21-.44,4.08.53,8.2,4.47,0,8.17-.45,13.12-.45,6.31,0,7.62.82,9.71-3.59l-1.1-11.33v-6.79c0-8,1.19-7.56,3.11-12.71.72-1.94,1.11-4.14,1.79-5.9.89-2.25,2.16-2.76,3.24-4.9,2.57-5,3.43-5.1,7.72-8.13,1.9-1.34,1.53-2.27,4.5-3.64,2-.93,4.16-1,5.44-2.7,3,2,6.33,1.8,9.46,3.21,2,.9,4,5,5.57,7.09,4.49,6.24-.6,14.92-2.19,19.71-1.77,5.34-2.59,4.54-4.4,8.26-.73,1.5-1.1,3.17-2,4.34-1.29,1.67-1.64.79-3.09,3.24-1.3,2.2-4.12,4.47-6.16,6.51-1.18,1.19-2.65,1.61-3.67,2.67-2,2.06.12,3.5-2.91,3.81l-1,2.14,1.31,1c2.5-1.19,3.37-2.3,7.23-2.26s5.82-.73,9.06-.91c7.65-.41,11.87.91,18.11.91h6.79c5,0,6.67-1.13,8-5.14,1.08-3.33,4.69-7.05,4.69-8.88,0-.3-1.42-1.68-1.81-2.26-1.51.73-3.91,1.11-5.26,2s-3,2.54-4.7,2.54c0,0-2.26-1.3-2.26-1.8,0-5,1.72-5.3,3.46-7.86a13.69,13.69,0,0,0,1.71-4.17c.76-2.32,1.53-2.09,2.34-3.54,1.53-2.76,3-16,2.19-20.35-.61-3.4-.57-6.77-2.18-9.13-.9-1.33-4-6.9-4.51-7.26-5.68-3.93-7.9-5.58-17.5-5.58-10.21,0-15.67,2.76-23.64,4l-11.89,1.78c-4.11-.78-4.78-5.3-8.83-5.3Zm-562.25,46.58c0,1.05-4.93,8.62-6,9.42-3.75,2.88-3.41,4.6-10.79,4.6h-.9c-11.94,0-9-5.42-12.68-8.14a15.19,15.19,0,0,0,1.36-5.42c0-2.56-20.36-2.27-24-2.27-1.2.81-2.26,1.61-2.26,3.62v.9c0,5.46,3.52,13.33,6.24,15.47,4.39,3.45,8.08,6.24,15.94,6.24h7.25c5.65,0,10.51-1.35,17.65-1.35,8.16,0,10.89.55,15.58-3.44,3.23-2.75,7.34-2.58,11.24-7.76,1.38-1.83,1.32-3.41,3.48-6,1.33-1.6,1.84-4.77,1.84-7.66v-6.79c0-4.76-3.32-6.94-5.5-9.87s-7-3.69-12.15-3.69c-7.25,0-13.92.91-20.37.92-8,0-13.59.09-13.59-8.15,0-2,3.48-4.79,4.88-6.43,1.24-1.45,6.08-2.62,8.7-2.62h.91c4.94,0,7.47.89,9.69,3.89.55.75,7.09,6.52,7.51,6.52h3.17c1.74,0,4.44-1.86,5.43-2.72,1.15.55,10.42,4,10.42.91v-4.53c0-3.8-3.91-11.13-6.68-11.87-4.11-1.08-10.94-4.41-14.15-4.41h-4.07c-6.64,0-7.23,3.17-16.3,3.17-7.35,0-12.5-.12-18.39,1.53-2.8.78-9.35,6-11.68,7.78-1.91,1.48-6.38,10.61-6.08,13.67.11,1.07,2.23,4.87,3,6.55,1.75,4.07.65,3.38,4.31,5.64,3,1.86,2.08,3.07,5.71,4.26,2.09.68,6.68.36,9.59.36,10.93,0,31.68-3.27,31.68,7.69Zm662.3-46.58c-10.33,0-15.85-1.5-15.85,10.4v.91a7.79,7.79,0,0,0,.92,3.71l4.06-.55c1.36-.2,3.08,1.92,3.73,2.72l-1,19.89v.9a114.59,114.59,0,0,0,.89,11.78c.59,6.49,1,5.43,3.47,9.66,2.11,3.62,1.18,4.92,4.88,8.23,1.72,1.55,6.82,3.35,9.77,3.35h36.22c1.35-5.78,6.33-13.6,6.32-19.43l-2.25-1.37c-1.89,1.26-2.8,3-4.23,3.91-1.68,1.07-4.26,1.4-6,2.59-2.64,1.79-1.32,2-5.21,3.39a19.72,19.72,0,0,1-7.18,1.41c-5,0-7.67-4.61-9.11-8.53-2-5.52-4-5.15-4-14.08V596c0-7.61,1.8-12.66,9.5-12.66l4.57-.28,13.54,1.64h4.08c.32-1.2,3.25-5.17,4.08-6.33,2-2.83,1.36-4.89,2.68-7.67l-2.24-2.28c-5.89,0-22.63,3.71-22.63-2.26,0-3,8.46-8.49,10.32-10.94s4-2.19,6-4.89c2.24-3.12,3.44-2.46,7-4.17l-1.06-1.71c-4.28,0-13.08-.3-17.12,1a20.67,20.67,0,0,1-8.23,1.27c-4.11,0-4.78,1.27-8.13,1.38-4.2.13-5-.37-6.67,2.84-1.53,3-2.69,2.69-3.82,5.67-.9,2.35-5.6,9.91-7.18,12.27Zm-623.36,0h-1.81c-3.07,0-3.17,7-3.17,10.4v.91c0,4.19,3.61,4.07,7.69,4.07.55.82.91.79.91,1.81v1.81c0,4.57-2.26,5.41-2.26,9v12.21c0,4.89,3.27,17.91,5.15,20.63.56.82,4.92,7.65,5,7.69a52.75,52.75,0,0,0,10.69,2.43h32.14c2.32,0,5.45-5.42,6.07-8,.52-2.1,1-3.68,1.44-5.79a16.15,16.15,0,0,1,2.45-4.74c0-2.13-2.7-1-5.43-1-2.12,4-14,8.44-18.56,10.85-2.73-1.44-5-1.45-7.15-3.72a39.72,39.72,0,0,1-4.57-6.73,57.55,57.55,0,0,1-3.68-18.49v-5c0-2,1.71-6,2.27-8.14.71-2.7,1.17-5.88,4.53-5.88l11.33-.11,11.3,1.47c2.42.36,5.81-2.29,6.52-5.24a43.17,43.17,0,0,1,1.16-4.73c.31-.74,2.28-3.33,2.28-3.59,0-5.31-17-1-19.47-1.31l-4.12-.47-2.21-3.65c1.73-2.59,8.36-8.12,11-10.75,1.92-1.94,5.33-3.11,6.23-4.63,2.14-3.6,3.4-1.26,5.88-5-.32-.17-2.22-1.36-2.22-1.36-3.24,0-5.19.91-9.55.9-6.4,0-5.51,1-9.12,1.74-6.86,1.39-12.75-.14-18.66,3.07-1.84,1-6.93,10.63-8,13.22-.55,1.3-3.77,4.85-5,5.84-2.34,1.83-5,.1-9,.1Zm421.45,35.28-.11,5.43.57,6.33c2.62,3.91,7.27,13.11,13.13,13.11h1.8c5.79,0,14.11-8.28,16.78-11.73,1.87-2.42,7.68-16.83,7.68-21.29,0-11-11.13-14.07-18.57-17.63a44.81,44.81,0,0,0-7.42,4.34c-3.8,2.52-3.32,3.33-6,5.73-3.35,3-2.91,2.85-4.58,7.18-1.28,3.34-3.24,3.41-3.24,8.53Zm-321.86,2.25v2.72c0,6.3,7.6,19.9,13.13,19.9h2.26c5.93,0,6.08-2.64,9.69-4.79a59.34,59.34,0,0,0,7.52-7.41c.9-1.5,1.27-3.39,2.1-5.14.94-2,2-1.75,2.94-4.75,1.44-4.33,1.53-7.17,3.55-11.38-1.4-1.62-1.7-4-2.85-6.19s-2.83-3.41-4.49-5-10-4.73-12.58-6c-3.24,1.56-4.47,2.89-7.7,4.52-3.65,1.84-3.46,3.28-6.21,6-2.16,2.12-7.36,13.3-7.36,17.52Zm220,8.6c4.46,0,13.39-1.27,15.74-3.28,3.89-3.34,7.1-3.93,10.6-8.39,7.84-10,8.52-17.24-2.35-24.44l-5-.52c-.09,0-7.74,6.21-8.14,6.78-1.27,1.78-5.33,5.44-7.35,8-1.43,1.86-2.52,7.75-4.42,11-1.51,2.54-2.67,10.85.9,10.85ZM947.85,610.9c.46.86,1.72,4.07,2.72,4.07a63.86,63.86,0,0,0,12.4-1.63c.39-.1,8.55-4.73,9-5.05,3.92-2.93,10.76-10.75,10.76-17.29,0-2.47-1-6.75-2.44-8-.65-.57-5.66-4.24-6.16-4.24h-3.63c-.87,0-7.56,4.57-8.27,5.3a56.63,56.63,0,0,0-6.29,7.29c-3.94,5.41-1.9,3-4.3,9.27-.71,1.84-1.79,2.85-2.44,4.35-.72,1.66-.6,4.37-1.33,5.9ZM1054.23,591c1.48,1,2.54,2.71,5,2.71h23.53a6.38,6.38,0,0,0,5.44-2.71c-1.17-5-1.5-6.5-5.12-9.36-3.85-3-2.84-4.21-10.27-4.21h-2.27c-4.84,0-6.57,3.27-10,5-3.72,1.88-4,5-6.34,8.59Z"/><path class="cls-2" d="M309.8,111.79H6.52L7,116.17c2,2.9,5,5.12,5.88,7.94,2.16,6.65,2.1,4.86,5,9.57,2.44,4,2.48,6.19,3.43,11.13,1.08,5.67,2.15,6.11,4,10.53C26.21,157.49,33,202,33,205.2V416.83c0,6.09-2.95,11.69-4.05,17.8-2,11-1.49,8.18-5.75,16.09-2.63,4.89-2.38,11.18-5.95,15.88-4,5.21-4.48,9-8.1,14.44l-.72.74c2.58,1.74,5.11,3.64,9.4,3.64l5.82.52,44-3.44,6.51,0,62.87,2.88H166c17.36,0,34.35-.27,50.59-1.46,8.72-.64,15-1.47,24.59-1.44,6.77,0,5.83-2.34,10.14-2.9,4.6-.59,7.8-.85,12.17-1.57,7.51-1.25,15.75-1,21.48-4.59,6.61-4.12,14.26-4,18.89-7.93,3.86-3.27,3.89-2.44,8.39-4.66s4.62-3.49,7.68-5.37c2.73-1.68,6.56-2.23,8.51-4.54,4.05-4.81,3.23-2.81,7.54-6.26,2.34-1.87,12.69-10.38,14-12.12,2.09-2.75,5.1-4,6.84-6.24s3.09-5.85,4.87-8.22c2.45-3.26,10.5-10.33,12.23-13.91,4-8.38,5.43-7.92,9-18,1.49-4.22,3.19-4.45,5-8.08,1.93-3.87,1.81-5.51,3-10.11,1.92-7.38,5.23-7.43,7.09-19.83,1.34-8.92,4.16-11.33,6-20.25,1-5.18,2-18.58,2-25V257.74c0-8.71-.65-20.56-2.1-27.79-1.86-9.2-4.84-12.43-6.86-23.73-1.31-7.36-1.26-5.36-4.5-10.05-2.28-3.31-2.12-7.66-3.64-11.65-1.67-4.38-3.83-5.3-5.62-9.65-3-7.25-.67-4.1-5.66-9.61-1.75-1.93-3.69-6.52-5.32-9.22-1.32-2.19-5.32-4.8-7.48-7.77-3.83-5.27-11-10-15.73-14.76-2.18-2.23-14.88-11.73-17.79-12.69-6.88-2.25-5-1.95-9.69-5.54-3-2.33-8.53-1.44-11.73-3.49Zm630.93,0H854c-2.2,1.41-18.19,1-24.41,4.41l-.89,6.54c-.21,1.44,7.29,11,9.1,15.63,1.9,4.87,2.34,4.24,4.51,7.85,1.73,2.85,2.07,6.94,2.85,10.25,1.7,7.11,4.12,10.27,5.68,19.09,1.31,7.46,1,16.1,1,24.53,0,18.26,2.17,30.49,2.17,48.16V273.8c0,4.05-.16,8.42,0,12.44.17,5.27,2.92,6.59,2.92,10.18v64.22a46.28,46.28,0,0,1-2.2,15.29c-1.21,4.26-.6,11.38-.66,16.84s-2.22,9.1-2.22,15.28c0,6.83-.64,11.54-.68,17.56,0,7.78-4.84,21.41-5.75,29.95-1.07,9.93-2,23.54-2.21,33.48l4.32,2.22c4.44-2.37,5.57-4.41,10.56-6.12,6.26-2.15,6.51-1.44,11.7-5,1.14-.77,23-10.07,23.27-10.07,3.26,0,7.33,3.76,10.83,5.13,4.06,1.58,8.73,1.93,12.57,4.08,9,5,12.86,6.11,26.47,6.11H966a98.58,98.58,0,0,0,17.17-1.63c8.83-1.5,7.1-3.13,13.15-5.69,3.51-1.49,11.93-1.87,16.11-2.71,6.39-1.28,9.68-3.25,15.16-4.4s10.72-1.37,16.19-2.63c6.39-1.47,7.77-4.32,12.81-6,6.08-2.07,8.27-2.25,12.56-6.29,1.91-1.8,3.75-2,6.24-3.19,3.71-1.82,3-2.29,5.8-4.36,5-3.77,6.61-3,10.74-8.13,2.18-2.68,3.16-2.1,5.44-4,2-1.69,2.34-3.18,4.3-5.14,1.8-1.82,3.87-2.48,5-4.49,2-3.78.49-2.51,3.74-5.71,4.67-4.6,4.28-8.08,7.69-11.93,6-6.75,3.15-4.45,6.93-12,3-5.94,3.68-5.25,5.65-13.27,2.49-10.12,7.38-19.32,7.38-31.23V297.88c0-11.59-5-19.16-7.86-27.83-2.65-8.1-3.55-5.46-6.59-10.86-3.42-6.06-5.39-6.31-7.72-10.45a10.45,10.45,0,0,0-4.29-4.42c-3.81-2.56-1.69-1.84-4.06-4.66-1.46-1.75-3.21-2.18-5.4-3.31-2.73-1.41-2.76-2.87-5-4.41-3.74-2.54-8.6-2.63-12.42-5-4.34-2.65-5.73-5-13.13-5h-35.42c-11.88,0-14.6,3.89-23.55,6.14-5.29,1.32-20.74,6.26-24.12,6.3-11.67.12-18,1.88-27.49,2.16-13.5.39-15.2,8-22.4,8-1.72,0-4.62-2.14-5.68-2.94l-.83-8V219.8c0-5,1.47-6.62,1.45-13.14,0-4.65-.31-9.89.43-14.16,1.54-8.94-.13-19.6,1.3-27.88,1.08-6.26.43-22.82,2.35-26.81,3-6.13,3.14-17.45,3.14-26ZM742,229.28h-8c-7.26,0-13.25-.21-20.25-.72-6.23-.45-12.6-3.53-18.06-3.66-5.12,9.77-2.3,11.86-2.14,23.33.07,4.6-.05,9.29,0,13.91,0,5.28,1.46,7.07,1.46,12.39v46a179.13,179.13,0,0,1-2,24.25c-1.72,11.13-4.88,12.22-6.51,20.43-2.45,12.4-4.88,9.95-7.84,19.08-1.45,4.47-1.67,5.61-4.56,8.54s-2.72,5.35-5.09,8.72c-3.06,4.36-8,10.54-12.12,14-2.38,2-4.14,4.6-6.55,6.53-3,2.39-5.57,2.74-8.28,5.5C641,428.7,627.2,438,625.94,438.3c-4,1-19.39,5.53-21.27,5.53h-5.78c-.15,0-21.25-6.3-22.18-6.8-3.42-1.82-4.34-4-8.41-6.1-6-3.09-3.46-4.3-7.26-7.26-5.14-4-3.2-2.81-6-8.56-1.93-4-4.4-5.91-5.44-9.11-.64-2-5.66-22.2-5.66-23.47V357c0-.35,6.2-23.6,6.48-24.11,2-3.55,3.26-2.36,6.08-9.19,1.52-3.69,4.21-4.1,6.48-8.77,4.06-8.34,21.74-27.6,29.25-32.49,3.55-2.31,4.66-4.7,8.21-7a56,56,0,0,0,8.72-6.53c3.48-3,4.52-1.63,9-6.2,3.53-3.58,6.19-3.16,9.73-5.5,4.07-2.69,2.72-3.24,9-6.22,4.68-2.22,5.68-4.22,9.23-6,5.65-2.84,15.47-8.21,18.47-12.74-7.84-5.3-8.67-3.65-21-3.65-8.29,0-16.84.77-23.85.74-8.18,0-16.38,0-24.57,0-10,0-16.72,2.19-23.13,2.19l-76.57-.57L470.24,230c-3.75,2.54-3.45,5.47-5.14,10.13-1.59,4.41-3.38,4.66-5.08,10.2-1.13,3.7-1.75,8.21-4,11.27-1.84,2.47-4.56,6.82-4.56,10.73a8.61,8.61,0,0,0,3.62,7.29c5.27-2.81,17.12-5.1,25.29-5.1h2.89c4.2,0,13,.9,13,4.37,0,2.36-12.89,15.12-15.17,19-3,5.07-3.51,1.54-7,10.44-2.46,6.27-5.33,5.72-6.86,10.59-1.59,5.09-1.2,8.82-4.19,13.28-2.8,4.16-3.38,7.59-4.19,13.28s-1,10-2,15.48c-1.07,5.72-3.93,9-3.93,13.55v19c0,3.31,1.51,6.5,2.66,9,1.36,2.92,1.23,6.11,1.95,9.71,1.49,7.41,2,13.12,6.05,18,1.48,1.76,2.48,5.54,3.49,8.14,2.67,6.81,2.49,3.56,5.11,7.26,1.84,2.6,2,5.17,4.24,7.39,3.5,3.48,2.6,1.94,6,6.35,3.19,4.15,8.34,8,12.88,11.08,3.56,2.39,1,3.22,6.33,5.29,3.19,1.24,6.38,1.89,9.13,3.18,8,3.76,6.22,4.6,18,5.92,6.91.78,11.94,2.85,21,2.85s31.3-3.93,36.87-7.28,10.69-3.06,17.88-4.58c2.73-.57,7.16-.18,9.89-1,4.47-1.27,3-2.54,9.06-2.52,17.6.06,25.14-1.44,40.07-4.06,6-1.06,12.65-4.8,17.82-1.82,3,1.73,4.42,12.23,6.45,16.11H729c7,0,14,0,21,0,8.42,0,11.54,2.19,18.79,2.19a25.47,25.47,0,0,0,10.84-2.91c-.86-3.72-3.3-8.13-4.63-13.58-1.73-7.05-3.09-8.16-5.05-13.87-1.83-5.32-2.61-27.54-2.61-35.31V373.77c0-29.91,5.91-50.06,8-78.09a53.74,53.74,0,0,1,3.92-17.2c2.37-6,2.53-11.05,3.74-18.11s.84-11.92,2.88-18.25c3.45-10.7,3.19-3.36,3.11-17.11l-2.08-1.56c-15,3.53-25.79,5.83-44.81,5.83Zm824.62,8c-.82.55-2.9,1.71-2.9,2.92,0,2.8,3.63,4.07,5.55,8.26,2.17,4.67,1.5,5.91,5.12,9.43,1.77,1.72,10,14.67,10.73,17.63,1.15,4.84,1.56,6.32,4.46,9.36,2.63,2.76,2.53,6.51,3.35,11.21.88,5,.59,7.49,1.18,12.67.44,3.89,3.58,8.08,3.58,11v73.7c0,4.26-2.17,6.45-2.76,10.36-.53,3.55-.6,8.74-.86,12.26-.43,5.67-1.66,18.16-3,23.23-2.15,8-4.4,8.88-5.72,20.49-.72,6.27-5.72,20.28-5.72,21.23,0,5.06,11.26,3.65,15.18,3.65l45.54-.18,30.35.91c7-4.71,1.3-13,.14-19.84-1.33-7.77-3-16.36-3-24.67V392c0-21.33,21.13-64.76,30.84-77.59a175.43,175.43,0,0,1,12.67-14.21c2.64-2.73,5-2.2,7.62-5.44,4.21-5.19,3.85-2.75,7.6-6.18,3.57-3.28,1.91-3.66,7.24-5.83,4.93-2,5.09-1.61,8.63-5.16,2.78-2.79,6.06-2.84,10.13-3.63,3.62-.71,9.69-3.83,9.94-3.83h.72c11.75,0,33.25,8.31,39.24,14.38,3,3,1.77,3.38,6.11,7,3.46,2.86,2.86,4.86,4.25,9.58,2.45,8.38,6.78,9,6.78,20.89v24.81c0,12.59-3.81,13.35-6.78,22.35-3.13,9.46-5.74,11.21-9.2,20.63-1.41,3.86-3.7,3.95-5.61,8.93-2,5.28-1.56,5.41-5.35,9.2-3.25,3.25-3.16,6.43-5.42,9.11-3.52,4.17-3.36,3.52-6.42,8.85-2.57,4.46-25.11,25.72-29.88,28.94-3.32,2.23-31.3,25.16-32.52,27,1.56,1.05,4.09,3.64,6.5,3.64,14.66,0,27.25-2.45,39.72-2.94,6.76-.27,14.36.49,21,0,5.76-.39,9.74-2.92,18.78-2.92h15.9c5.08,0,8.07,2.94,18.07,2.91a168.08,168.08,0,0,1,19.49,1.48c8.82,1.08,32.91,2.55,39.31-.48,4.6-2.18,3.78-9.92,6.51-14.59,4.17-7.12,3.43-8.82,6.55-15.28,2.51-5.18,16.31-21.58,16.31-26.59,0-4.67-7.6-3.18-10.63-2-5.61,2.23-5.27,4.41-10.88,5.79-4.74,1.17-8.68,1.33-12.27,4.4-3.09,2.63-7.08,4.19-12.48,4.19l-5.8.16-7.93-.89c-.61-.93-2.89-3.16-2.89-3.65,0-1.82,14.12-19.79,15.9-23.35,2.24-4.48,4.51-4.71,7.93-11.7,2.17-4.43,5-5.38,7.35-12.28,1.9-5.55,4.35-7.8,6-13.68,1.49-5.43,1.91-11.17,3.31-16.37,1.44-5.37,3.81-7.49,4.37-15.29.47-6.66.71-12.06.71-19V306.63c0-11.12-5.56-21.87-8.39-31.65-2.09-7.2-12.15-18.69-16-24.68-2.67-4.14-7.14-5.63-10.8-8.8-5.84-5-6.46-3.64-13.7-6.6-10.36-4.24-20-6.35-34.19-6.35-20.9,0-29.58.86-44.88,6.49-10.49,3.86-37,2-45.69,5.69-2.66,1.14-18.11,3.46-21.5,3.83-14.72,1.57-9.79,1.27-19.94,6.13-5,2.4-16.59,4.94-18.77-1.25-3.2-9.12,2-13.43-3.88-22.35-3,1.44-42.22,9.52-47.69,9.5-17.51-.07-38.25.72-57.1.72Zm-1449,35v92c0,27.08,1.71,45.31,7.83,65.79,2.32,7.73,12.43,14.24,20.4,15.9,5.16,1.07,10.13,1.54,15.68,2.4,4.27.66,12.83,3.47,15.35,3.47h4.34c3.56,0,28.92-5.86,31.33-7,1.94-.95,3.51-2.82,5.53-3.9,2.35-1.26,4.88-1.36,7.68-2.46,4.49-1.78,6.07-4.67,12.28-7.31,3.92-1.66,7-5.49,11.59-8s2-.84,5.1-4.34c2.37-2.68,3.72-2.14,6.15-4,.18-.13,9.42-9.6,9.67-9.94,2.25-3.08,1.94-2.49,4.76-4.68,3.12-2.42,2.43-3.81,4.38-5.79s3.17-1.65,4.89-4.56c2-3.44.82-3.3,4.33-5.83,3.87-2.79,4.24-8.5,7.4-12.24C302,365,305.61,354.68,308.81,345c2.09-6.32,4.2-7.35,5.51-14.14,1-5.07,1.53-12.08,2.53-17.15,1.45-7.38,3.06-7.84,3-16.62,0-5.76,2.19-13.15,2.19-17.5,0-6.76-3.08-20.63-4.77-26.56-1.32-4.6-1.57-8.66-2.61-13.42-1.12-5.12-3.35-6.28-5.22-10.78-1.65-4-2.05-8-4.15-11.14a49.88,49.88,0,0,1-5.64-10.36c-1.66-3.73-4.16-4.6-6.52-9.47-3.23-6.65-3.5-4.59-7.06-8.92-4.14-5.06-1.55-3.22-7.21-8-3.27-2.78-4.55-4.66-8.43-7.54-3.68-2.71-4.65-5.1-9-7-7.27-3.13-5.16-3.83-9.49-6.47-5.64-3.44-38.86-16-47-16h-15.9c-8.24,0-9.46,4.37-18.49,6.14-10.59,2.09-10.26,5.74-17.21,7.44-13.15,3.22-8,4-16.1,8.55-2.32,1.31-11.06,11.4-11.66,13.78-1.65,6.64-1.41,16.05-2.86,21.91-2.09,8.45-2.22,12.68-3.08,22.43-1.35,15.29-2.15,30.94-2.15,48.19ZM1289.08,111.79H1266l-28.19,2.92-29.66.26-20.21-1.72c-.56,0-2.89,2.34-2.89,2.92,0,8.13,4.64,17.87,6.22,26.56.89,4.94,1.19,10.1,1.75,15s3.59,11.15,3.59,13.16V356.26c0,2.91-2.89,8.1-2.89,17.51,0,7.49.13,12.79-1,19.41-1.69,9.78-.66,28.47-1.81,39-1.4,12.74-5.13,21.21-6.51,34.29-.86,8.22-.6,10.36-3.44,17-2.49,5.81-3.12,6-3.12,14.11l5.17,1.05h4c2.8,0,11.77-6,15.31-6.69,7.86-1.55,9-4.27,14.5-5.8,3.84-1.07,11.88-2.83,14.92-4.64,4.81-2.87,7.92-4.83,15.45-4.83,14.32,0,16,8.75,35.41,8.75h21.68c16.78,0,26.74-6.32,29.47-19.86,2.36-11.7,2.43-9.72,6.19-18.57,2.86-6.74,1.89-13,5.53-19.95-5.69-8.59-21.16.41-27.9,2.48-9,2.77-25.72,2.06-31.36,7-5.26-2.55-10.36-2.57-13-8-1.07-2.19-.68-16.48-1.34-20.54-1.27-7.84-2.24-10-2.24-19.62,0-9.32-2.17-12.49-2.17-19.71v-88.3c0-5.12,1.57-14.8,2.21-21.11.31-3,1.7-5.94,2.45-9.21.85-3.77,0-7.67.81-11.59,2.2-11,1.68-32.54,2.48-44.93.84-13.1,6.07-25.39,6.51-40.86.42-14.81,7.22-19.87,7.22-40.87ZM1385.2,238l-2.89,2.19c2.82,4.25,12.62,11.57,16.82,15.86,1.84,1.87,6.79,7,8.34,8.36,4.51,4,3.83,6.5,7.17,9.54,8.6,7.82,16.82,32.88,16.82,49.43v93.41c0,1.67-2.94,13.84-3.54,18.32-.9,6.75-1.67,13.44-2.26,20.33-.47,5.42-13.68,32.13-2.15,32.13h3.61c3.65,0,6-1.76,9.44-2.14,3.17-.36,8.17,0,11.54,0,6.47,0,14.59-.75,22.39-.75h1.44c8.14,0,48.42,3,48.42-2.91,0-.08-3.73-9.95-4.34-12.41a124.18,124.18,0,0,1-2.18-14.57c-.94-8.16-4.22-20.45-4.35-29.92-.16-12.42-1.42-19.92-1.42-32.14,0-12.48-1.44-22.12-1.44-32.83l-.38-70.1,4.71-47.39v-9.49c0-2.78-3.85-4.08-5.78-5.11-4.67,1.1-8.15,1.44-13.46,2.47-5,.94-8.19,3-12.72,3.94a125.49,125.49,0,0,1-29.46,3.08c-21.28,0-44.37.73-64.33.73ZM992,446h5.79c5.73,0,18.22-12.24,22.4-15.33,4.9-3.62,4.83-6.37,8.48-10.41,2.35-2.6,7.19-10,8.14-10.75,4.41-3.58,10.86-18.2,12.91-24.92,1.9-6.23,4.76-6.81,5.73-13.18.78-5.14,2.32-12.71,2.32-17.36V338c0-5.89-1.64-25.43-3.77-28.3-3.6-4.87-3.56-2.34-6.06-9.93-2.07-6.26-3.2-5.29-6.61-9.39s-3.22-4.84-8.27-7.7-6.5-5.17-9.24-6.72c-3.22-1.82-8.87-1.82-12-3.91-4.05-2.66-5.08-4.1-11.84-4.1-8.61,0-8.62,2.85-13.57,6-5.62,3.57-7.18,6.62-11.49,8.83-5.21,2.67-15.75,16-19.29,21.39-1.92,2.91-3,1.74-5.11,5.05-1.42,2.27-2.06,4.38-3.57,6.61-5.28,7.8-3,5-6.5,13.87-2.14,5.45-4.66,7.92-6.08,14.29-1.33,6-1.58,11.4-4,16.4-4,8.28-4.6,23.29-7.17,33.66-2.87,11.59,8.08,20.09,13.73,25.87,4.31,4.42,7.67,4,11.92,8.4,3.3,3.43,8.28,4.34,12.7,7.61,5.07,3.75,9.57,2.9,15.43,4.85s4.62,5.23,15,5.23Zm419.9-259.79c0,7.47,3.46,8.94,9.44,10.17,5.42,1.12,11.47,2.39,15.86,4.42,3.61,1.67,28.76,7.3,33.25,7.3h2.16c6.92,0,17.23-9.48,22.91-11.9,4.41-1.88,5.23-4.14,10.59-6.82,4.62-2.32,7.18-6.07,10.13-7.29,8.53-3.54,5.29-3.61,10.57-6.84,5.12-3.13,5.79-2.2,10.65-6.76,3-2.84,5.7-2.23,10.48-6.93,3.82-3.76,9.16-3.35,11.4-6.73-.08-.11-12.26-8-13.23-8.53-5.78-3.09-10.7-2.09-16.56-5.91-6.06-4-11.44-3.69-15.91-6.55s-9.3-6-16.45-6c-5.49,0-10.13,1.47-13.2,4.19-4.68,4.17-7.59,3.36-11.83,6.3-5.39,3.71-4.35,3.89-11.23,6.9-3.08,1.36-2.52,2-4.6,4.11-1.81,1.83-3.6,2.24-5.84,3.59-2.78,1.67-6.25,5-10,7.45-5.3,3.55-4.4,5-10.09,8.06,0,0-8.59,8.06-9.34,8.81-1,1-9.19,8.89-9.19,9Z"/><path class="cls-1" d="M1110.62,162.19q-13.59,9.87-22.75.7l-4.12-4.11q-5.74-5.75-15.45-28.5a4.75,4.75,0,0,0-1.4-2.17l-.62-.62q-2.71-2.71-5.28-1.71-3.42,3.42,5.9,18.17,13.27,28,5.52,35.79l-3.11,3.11q-12.74,7.92-24.07-3.42l-.31.31-1.4-2-2.4-2.4q-2.1-2.1-13.13.69-6.68-1.23-10.32-4.89l-1-1q-10-10,.7-24,7.29-7.29,33.38-18.94l.7-.7c2-2.59,2.64-4.19,2-4.82l-.39-.38q-1.86-1.87-24.69,13.82-20.57,11.1-29.66,2t-.31-24.38q7.61-7.62,4.82-10.41-5.84-12,3.1-21,13.67-9.78,24.85,1.39l2.71,2.72q5.67,5.67,17.86,26.87a16,16,0,0,1,3.42,2l.7-.7q-5.06-13.12-23.76-47.06-5.74-12.88-5.44-30.28,1-12.18,5.13-17.54,3.11-3.11,14.75-3.11a3.56,3.56,0,0,1,1.48.7l-.39,1-1.4,1.4q-26.32,26.31,4.81,75.62l6.84,17.24.7-.7q1.79-1.78-8.55-25.16-6.83-21.27.7-28.8l.7-.7q7.53-7.53,21.35-.7l3.73,3.11,5.13,6.52q1.54,1.55,10-.39,7.53.7,10.64,3.8l2.79,2.8q7.23,7.21,1,20.26L1102,95.81q-6,6-33.39,15.53l-2,2q-2.79,2.79-.39,5.2,2.64,2.64,17.86-6.21,27.57-13.75,36.18-5.13l2.41,2.41q6.84,6.83,0,20.65l-2.1,3.34q-3.72,3.1-5.51,4.89t.7,9.55A17.51,17.51,0,0,1,1110.62,162.19Z"/></svg>