<svg xmlns="http://www.w3.org/2000/svg" viewBox="0 0 77.5 77.5"><defs><style>.cls-1{fill:#2f765f;}.cls-2{fill:none;stroke:#fff;stroke-miterlimit:10;stroke-width:2.83px;}.cls-3{font-size:5px;font-family:CenturyGothic, Century Gothic;}.cls-3,.cls-4,.cls-5{fill:#fff;}.cls-4{font-size:9px;font-family:Collegiate;}</style></defs><title>Ресурс 5</title><g id="Слой_2" data-name="Слой 2"><g id="Layer_1" data-name="Layer 1"><circle class="cls-1" cx="38.75" cy="38.75" r="38.75"/><circle class="cls-2" cx="38.75" cy="38.75" r="34.41"/><text class="cls-3" transform="translate(19.28 61.54) rotate(37.65)">R</text><text class="cls-3" transform="translate(21.76 63.46) rotate(31.45)">e</text><text class="cls-3" transform="translate(24.6 65.16) rotate(26.38)">s</text><text class="cls-3" transform="translate(26.32 66.01) rotate(22.93)">t</text><text class="cls-3" transform="translate(27.94 66.73) rotate(17.85)">a</text><text class="cls-3" transform="matrix(0.98, 0.2, -0.2, 0.98, 31.27, 67.79)">u</text><text class="cls-3" transform="translate(34.31 68.37) rotate(7.02)">r</text><text class="cls-3" transform="matrix(1, 0.04, -0.04, 1, 35.84, 68.6)">a</text><text class="cls-3" transform="translate(39.34 68.72) rotate(-3.99)">n</text><text class="cls-3" transform="translate(42.43 68.48) rotate(-8.6)">t</text><text class="cls-3" transform="matrix(0.98, -0.2, 0.2, 0.98, 44.08, 68.23)"> </text><text class="cls-3" transform="translate(45.55 68.01) rotate(-17.46)">M</text><text class="cls-3" transform="translate(50.06 66.53) rotate(-25.29)">e</text><text class="cls-3" transform="matrix(0.85, -0.52, 0.52, 0.85, 53.09, 65.08)">n</text><text class="cls-3" transform="translate(55.76 63.44) rotate(-37.52)">u</text><text class="cls-4" transform="translate(19.37 53.24) rotate(-121.2)">O</text><text class="cls-4" transform="matrix(-0.36, -0.93, 0.93, -0.36, 17.04, 49.4)">R</text><text class="cls-4" transform="translate(15.63 45.57) rotate(-103.89)">I</text><text class="cls-4" transform="translate(15.08 43.77) rotate(-96.25)">G</text><text class="cls-4" transform="translate(14.66 39.25) rotate(-88.73)">I</text><text class="cls-4" transform="translate(14.6 37.34) rotate(-81.13)">N</text><text class="cls-4" transform="translate(15.25 32.95) rotate(-70.51)">A</text><text class="cls-4" transform="translate(16.78 28.73) rotate(-61.14)">L</text><text class="cls-4" transform="matrix(0.57, -0.82, 0.82, 0.57, 18.47, 25.74)"> </text><text class="cls-4" transform="matrix(0.66, -0.75, 0.75, 0.66, 19.26, 24.46)">R</text><text class="cls-4" transform="translate(21.93 21.43) rotate(-39.87)">E</text><text class="cls-4" transform="translate(24.53 19.23) rotate(-31.67)">C</text><text class="cls-4" transform="translate(27.6 17.38) rotate(-25.12)">I</text><text class="cls-4" transform="translate(29.29 16.5) rotate(-17.99)">P</text><text class="cls-4" transform="translate(33.1 15.27) rotate(-9.14)">E</text><text class="cls-4" transform="matrix(1, -0.02, 0.02, 1, 36.44, 14.71)">S</text><text class="cls-4" transform="matrix(1, 0.09, -0.09, 1, 40.05, 14.69)"> </text><text class="cls-4" transform="translate(41.55 14.71) rotate(12.24)">O</text><text class="cls-4" transform="translate(45.95 15.7) rotate(21.43)">F</text><text class="cls-4" transform="matrix(0.89, 0.46, -0.46, 0.89, 49, 16.94)"> </text><text class="cls-4" transform="translate(50.38 17.63) rotate(31.37)">I</text><text class="cls-4" transform="matrix(0.78, 0.62, -0.62, 0.78, 52.07, 18.57)">R</text><text class="cls-4" transform="translate(55.2 21.13) rotate(45.52)">I</text><text class="cls-4" transform="matrix(0.62, 0.79, -0.79, 0.62, 56.58, 22.46)">S</text><text class="cls-4" transform="matrix(0.47, 0.88, -0.88, 0.47, 58.8, 25.18)">H</text><text class="cls-4" transform="translate(60.94 29.34) rotate(69.01)"> </text><text class="cls-4" transform="translate(61.54 30.74) rotate(75.13)">C</text><text class="cls-4" transform="matrix(0.09, 1, -1, 0.09, 62.51, 34.11)">U</text><text class="cls-4" transform="matrix(-0.04, 1, -1, -0.04, 62.85, 38.72)">I</text><text class="cls-4" transform="matrix(-0.15, 0.99, -0.99, -0.15, 62.83, 40.63)">S</text><text class="cls-4" transform="translate(62.25 44.16) rotate(105.41)">I</text><text class="cls-4" transform="translate(61.84 46.02) rotate(113.1)">N</text><text class="cls-4" transform="translate(60.07 50.1) rotate(122.4)">E</text><path class="cls-5" d="M59.53,37.67a20.78,20.78,0,0,0-41.56,0,19.56,19.56,0,0,0,10.15,17A19.16,19.16,0,0,1,38.75,19.55c10.58,0,18.35,8.58,18.35,19.16a19.61,19.61,0,0,1-4.51,13.11c-3.23,3.26-7.23,4.94-9.86,4.94-3.11,0-3.64-3-3.64-5.41,0-2.19-.08-5-.09-5.59.5,2.73,1.82,7.26,5.15,7.26,4.76,0,3.74-5,3.74-5s4.92.85,5.26-3.68c.28-3.69-4-5.08-6.79-5.59,2.78-.41,6.8-1.58,6.8-5,0-4.65-4.75-4-4.75-4s.9-5.32-4-5.32-5.66,9.28-5.66,9.28-.68-9.28-5.44-9.28-3.73,5-3.73,5-4.93-.85-5.27,3.68c-.27,3.69,4,5.08,6.79,5.6-2.78.4-6.8,1.57-6.8,5,0,4.65,4.76,4,4.76,4s-.91,5.32,4,5.32c1.75,0,3-1.21,3.82-2.75V52.4c0,2.43,1,6.42,6.07,6.42s16.58-6.47,16.58-20.53h0C59.52,38.09,59.53,37.88,59.53,37.67Z"/></g></g></svg>